<svg width="302" height="84" viewBox="0 0 302 84" fill="none" xmlns="http://www.w3.org/2000/svg">
<path d="M121.88 14.44C122 14.44 122.1 14.48 122.18 14.56C122.273 14.64 122.313 14.74 122.3 14.86C122.273 15.6467 122.02 16.3733 121.54 17.04C121.073 17.6933 120.393 18.22 119.5 18.62C118.607 19.0067 117.56 19.2 116.36 19.2C114.653 19.2 113.3 18.8 112.3 18C111.313 17.1867 110.727 16.0267 110.54 14.52H109.24C109.107 14.52 108.993 14.4733 108.9 14.38C108.807 14.2867 108.76 14.1733 108.76 14.04V12.88C108.76 12.7333 108.807 12.62 108.9 12.54C108.993 12.4467 109.107 12.4 109.24 12.4H110.48V11.64H109.24C109.107 11.64 108.993 11.5933 108.9 11.5C108.807 11.4067 108.76 11.2933 108.76 11.16V10C108.76 9.85333 108.807 9.74 108.9 9.66C108.993 9.56667 109.107 9.52 109.24 9.52H110.54C110.713 8 111.293 6.83333 112.28 6.02C113.28 5.20667 114.64 4.8 116.36 4.8C117.56 4.8 118.607 5 119.5 5.4C120.393 5.78667 121.073 6.31333 121.54 6.98C122.02 7.63333 122.273 8.35333 122.3 9.14V9.18C122.3 9.28667 122.253 9.38 122.16 9.46C122.08 9.52667 121.987 9.56 121.88 9.56H119.94C119.78 9.56 119.653 9.52667 119.56 9.46C119.467 9.38 119.393 9.24667 119.34 9.06C119.14 8.38 118.793 7.88667 118.3 7.58C117.807 7.27333 117.16 7.12 116.36 7.12C114.707 7.12 113.747 7.92 113.48 9.52H116.78C116.927 9.52 117.04 9.56667 117.12 9.66C117.213 9.74 117.26 9.85333 117.26 10V11.16C117.26 11.2933 117.213 11.4067 117.12 11.5C117.027 11.5933 116.913 11.64 116.78 11.64H113.4V12.4H116.78C116.927 12.4 117.04 12.4467 117.12 12.54C117.213 12.62 117.26 12.7333 117.26 12.88V14.04C117.26 14.1733 117.213 14.2867 117.12 14.38C117.04 14.4733 116.927 14.52 116.78 14.52H113.48C113.747 16.0933 114.707 16.88 116.36 16.88C117.16 16.88 117.807 16.7267 118.3 16.42C118.793 16.1133 119.14 15.62 119.34 14.94C119.393 14.7533 119.467 14.6267 119.56 14.56C119.653 14.48 119.78 14.44 119.94 14.44H121.88ZM129.873 19.2C128.086 19.2 126.753 18.7067 125.873 17.72C125.006 16.7333 124.533 15.44 124.453 13.84C124.44 13.48 124.433 12.8667 124.433 12C124.433 11.12 124.44 10.4933 124.453 10.12C124.52 8.54667 125 7.26667 125.893 6.28C126.786 5.29333 128.113 4.8 129.873 4.8C131.633 4.8 132.96 5.29333 133.853 6.28C134.746 7.26667 135.226 8.54667 135.293 10.12C135.32 10.8667 135.333 11.4933 135.333 12C135.333 12.5067 135.32 13.12 135.293 13.84C135.213 15.44 134.733 16.7333 133.853 17.72C132.986 18.7067 131.66 19.2 129.873 19.2ZM129.873 16.86C130.7 16.86 131.32 16.5933 131.733 16.06C132.146 15.5133 132.366 14.74 132.393 13.74C132.406 13.3533 132.413 12.76 132.413 11.96C132.413 11.16 132.406 10.58 132.393 10.22C132.366 9.24667 132.146 8.48667 131.733 7.94C131.32 7.39333 130.7 7.11333 129.873 7.1C129.046 7.11333 128.426 7.39333 128.013 7.94C127.6 8.48667 127.38 9.24667 127.353 10.22C127.34 10.58 127.333 11.16 127.333 11.96C127.333 12.76 127.34 13.3533 127.353 13.74C127.38 14.74 127.6 15.5133 128.013 16.06C128.426 16.5933 129.046 16.86 129.873 16.86ZM142.827 19C142.694 19 142.581 18.9533 142.487 18.86C142.394 18.7667 142.347 18.6533 142.347 18.52V9.08C142.347 8.93333 142.394 8.82 142.487 8.74C142.581 8.64667 142.694 8.6 142.827 8.6H144.407C144.554 8.6 144.667 8.64667 144.747 8.74C144.841 8.82 144.887 8.93333 144.887 9.08V9.76C145.607 8.85333 146.574 8.4 147.787 8.4C149.267 8.4 150.301 8.99333 150.887 10.18C151.207 9.64667 151.661 9.22 152.247 8.9C152.834 8.56667 153.467 8.4 154.147 8.4C155.241 8.4 156.134 8.77333 156.827 9.52C157.521 10.2667 157.867 11.3533 157.867 12.78V18.52C157.867 18.6533 157.821 18.7667 157.727 18.86C157.647 18.9533 157.534 19 157.387 19H155.727C155.594 19 155.481 18.9533 155.387 18.86C155.294 18.7667 155.247 18.6533 155.247 18.52V12.94C155.247 12.1 155.067 11.4933 154.707 11.12C154.361 10.7467 153.901 10.56 153.327 10.56C152.807 10.56 152.361 10.7533 151.987 11.14C151.627 11.5133 151.447 12.1133 151.447 12.94V18.52C151.447 18.6533 151.401 18.7667 151.307 18.86C151.227 18.9533 151.114 19 150.967 19H149.287C149.154 19 149.041 18.9533 148.947 18.86C148.854 18.7667 148.807 18.6533 148.807 18.52V12.94C148.807 12.1133 148.627 11.5133 148.267 11.14C147.907 10.7533 147.447 10.56 146.887 10.56C146.367 10.56 145.921 10.7533 145.547 11.14C145.187 11.5133 145.007 12.1133 145.007 12.94V18.52C145.007 18.6533 144.961 18.7667 144.867 18.86C144.787 18.9533 144.674 19 144.527 19H142.827ZM165.034 19.2C163.46 19.2 162.247 18.8 161.394 18C160.54 17.2 160.08 16.0933 160.014 14.68L159.994 13.8L160.014 12.92C160.08 11.52 160.547 10.42 161.414 9.62C162.28 8.80667 163.487 8.4 165.034 8.4C166.567 8.4 167.767 8.80667 168.634 9.62C169.5 10.42 169.967 11.52 170.034 12.92C170.047 13.08 170.054 13.3733 170.054 13.8C170.054 14.2267 170.047 14.52 170.034 14.68C169.967 16.0933 169.507 17.2 168.654 18C167.8 18.8 166.594 19.2 165.034 19.2ZM165.034 17.18C165.74 17.18 166.28 16.96 166.654 16.52C167.04 16.08 167.247 15.4333 167.274 14.58C167.287 14.4467 167.294 14.1867 167.294 13.8C167.294 13.4133 167.287 13.1533 167.274 13.02C167.247 12.1667 167.04 11.52 166.654 11.08C166.267 10.6267 165.727 10.4 165.034 10.4C164.327 10.4 163.78 10.6267 163.394 11.08C163.007 11.52 162.8 12.1667 162.774 13.02L162.754 13.8L162.774 14.58C162.8 15.4333 163.007 16.08 163.394 16.52C163.78 16.96 164.327 17.18 165.034 17.18ZM172.749 19C172.616 19 172.503 18.9533 172.409 18.86C172.316 18.7667 172.269 18.6533 172.269 18.52V9.08C172.269 8.93333 172.316 8.82 172.409 8.74C172.503 8.64667 172.616 8.6 172.749 8.6H174.409C174.556 8.6 174.669 8.64667 174.749 8.74C174.843 8.82 174.889 8.93333 174.889 9.08V9.9C175.703 8.9 176.816 8.4 178.229 8.4C179.456 8.4 180.429 8.8 181.149 9.6C181.869 10.4 182.229 11.5 182.229 12.9V18.52C182.229 18.6533 182.183 18.7667 182.089 18.86C182.009 18.9533 181.896 19 181.749 19H179.949C179.816 19 179.703 18.9533 179.609 18.86C179.516 18.7667 179.469 18.6533 179.469 18.52V13.02C179.469 12.2467 179.276 11.6467 178.889 11.22C178.516 10.78 177.976 10.56 177.269 10.56C176.589 10.56 176.043 10.78 175.629 11.22C175.216 11.66 175.009 12.26 175.009 13.02V18.52C175.009 18.6533 174.963 18.7667 174.869 18.86C174.789 18.9533 174.676 19 174.529 19H172.749ZM189.372 19C188.159 19 187.245 18.6867 186.632 18.06C186.019 17.42 185.712 16.4867 185.712 15.26V10.74H184.132C183.999 10.74 183.885 10.6933 183.792 10.6C183.699 10.5067 183.652 10.3933 183.652 10.26V9.08C183.652 8.94667 183.699 8.83333 183.792 8.74C183.885 8.64667 183.999 8.6 184.132 8.6H185.712V5.28C185.712 5.13333 185.759 5.02 185.852 4.94C185.945 4.84667 186.059 4.8 186.192 4.8H187.852C187.999 4.8 188.112 4.84667 188.192 4.94C188.285 5.02 188.332 5.13333 188.332 5.28V8.6H190.832C190.965 8.6 191.079 8.64667 191.172 8.74C191.265 8.83333 191.312 8.94667 191.312 9.08V10.26C191.312 10.3933 191.265 10.5067 191.172 10.6C191.079 10.6933 190.965 10.74 190.832 10.74H188.332V15.04C188.332 15.6133 188.432 16.0467 188.632 16.34C188.832 16.6333 189.159 16.78 189.612 16.78H191.012C191.159 16.78 191.272 16.8267 191.352 16.92C191.445 17 191.492 17.1133 191.492 17.26V18.52C191.492 18.6533 191.445 18.7667 191.352 18.86C191.272 18.9533 191.159 19 191.012 19H189.372ZM193.765 19C193.632 19 193.519 18.9533 193.425 18.86C193.332 18.7667 193.285 18.6533 193.285 18.52V5.28C193.285 5.13333 193.332 5.02 193.425 4.94C193.519 4.84667 193.632 4.8 193.765 4.8H195.585C195.732 4.8 195.845 4.84667 195.925 4.94C196.019 5.02 196.065 5.13333 196.065 5.28V9.84C196.865 8.88 197.939 8.4 199.285 8.4C200.512 8.4 201.492 8.80667 202.225 9.62C202.959 10.42 203.325 11.5133 203.325 12.9V18.52C203.325 18.6533 203.279 18.7667 203.185 18.86C203.105 18.9533 202.992 19 202.845 19H201.025C200.879 19 200.759 18.9533 200.665 18.86C200.572 18.7667 200.525 18.6533 200.525 18.52V13.02C200.525 12.2467 200.332 11.6467 199.945 11.22C199.572 10.78 199.032 10.56 198.325 10.56C197.645 10.56 197.099 10.78 196.685 11.22C196.272 11.66 196.065 12.26 196.065 13.02V18.52C196.065 18.6533 196.019 18.7667 195.925 18.86C195.845 18.9533 195.732 19 195.585 19H193.765ZM206.363 19C206.23 19 206.116 18.9533 206.023 18.86C205.93 18.7667 205.883 18.6533 205.883 18.52V5.28C205.883 5.13333 205.93 5.02 206.023 4.94C206.116 4.84667 206.23 4.8 206.363 4.8H208.043C208.19 4.8 208.303 4.84667 208.383 4.94C208.476 5.02 208.523 5.13333 208.523 5.28V18.52C208.523 18.6533 208.476 18.7667 208.383 18.86C208.303 18.9533 208.19 19 208.043 19H206.363ZM213.055 22.8C212.949 22.8 212.849 22.76 212.755 22.68C212.675 22.6 212.635 22.5067 212.635 22.4C212.635 22.3067 212.662 22.2 212.715 22.08L214.295 18.38L210.455 9.32C210.402 9.2 210.375 9.10667 210.375 9.04C210.389 8.92 210.435 8.82 210.515 8.74C210.595 8.64667 210.695 8.6 210.815 8.6H212.475C212.715 8.6 212.889 8.72667 212.995 8.98L215.655 15.5L218.355 8.98C218.489 8.72667 218.675 8.6 218.915 8.6H220.535C220.655 8.6 220.755 8.64 220.835 8.72C220.915 8.8 220.955 8.89333 220.955 9C220.955 9.09333 220.929 9.2 220.875 9.32L215.215 22.42C215.109 22.6733 214.922 22.8 214.655 22.8H213.055Z" fill="white"/>
<path d="M113.372 50.17C111.91 50.17 110.839 49.745 110.159 48.895C109.49 48.0337 109.133 46.9117 109.088 45.529L109.071 44.067L109.088 42.554C109.122 41.1827 109.479 40.072 110.159 39.222C110.85 38.3607 111.921 37.93 113.372 37.93C114.834 37.93 115.905 38.3607 116.585 39.222C117.276 40.072 117.639 41.1827 117.673 42.554C117.684 42.8713 117.69 43.3757 117.69 44.067C117.69 44.7357 117.684 45.223 117.673 45.529C117.628 46.9117 117.265 48.0337 116.585 48.895C115.916 49.745 114.845 50.17 113.372 50.17ZM113.372 48.759C114.245 48.759 114.902 48.47 115.344 47.892C115.786 47.314 116.018 46.498 116.041 45.444C116.052 45.1153 116.058 44.645 116.058 44.033C116.058 43.4097 116.052 42.945 116.041 42.639C116.018 41.5963 115.78 40.786 115.327 40.208C114.885 39.6187 114.233 39.324 113.372 39.324C112.511 39.324 111.859 39.6187 111.417 40.208C110.975 40.786 110.743 41.5963 110.72 42.639L110.703 44.033L110.72 45.444C110.743 46.498 110.975 47.314 111.417 47.892C111.859 48.47 112.511 48.759 113.372 48.759ZM120.039 50C119.926 50 119.83 49.966 119.75 49.898C119.682 49.8187 119.648 49.7223 119.648 49.609V48.436C119.648 48.3227 119.682 48.2263 119.75 48.147C119.83 48.0677 119.926 48.028 120.039 48.028H121.212C121.326 48.028 121.416 48.0677 121.484 48.147C121.564 48.2263 121.603 48.3227 121.603 48.436V49.609C121.603 49.7223 121.564 49.8187 121.484 49.898C121.416 49.966 121.326 50 121.212 50H120.039ZM125.277 50C125.175 50 125.09 49.966 125.022 49.898C124.965 49.8187 124.937 49.728 124.937 49.626C124.937 49.5467 124.959 49.473 125.005 49.405L127.623 45.767C127.351 45.835 127.033 45.869 126.671 45.869C125.855 45.8577 125.141 45.6707 124.529 45.308C123.917 44.934 123.446 44.4523 123.118 43.863C122.8 43.2623 122.642 42.622 122.642 41.942C122.642 41.262 122.8 40.616 123.118 40.004C123.446 39.392 123.928 38.8933 124.563 38.508C125.209 38.1227 125.985 37.93 126.892 37.93C127.798 37.93 128.575 38.117 129.221 38.491C129.867 38.865 130.354 39.358 130.683 39.97C131.011 40.5707 131.176 41.2167 131.176 41.908C131.176 42.5313 131.062 43.081 130.836 43.557C130.62 44.033 130.331 44.526 129.969 45.036L126.671 49.66C126.591 49.762 126.512 49.847 126.433 49.915C126.365 49.9717 126.263 50 126.127 50H125.277ZM126.892 44.526C127.379 44.526 127.827 44.4183 128.235 44.203C128.643 43.9877 128.966 43.6873 129.204 43.302C129.442 42.9053 129.561 42.452 129.561 41.942C129.561 41.4207 129.442 40.9617 129.204 40.565C128.966 40.1683 128.643 39.8623 128.235 39.647C127.827 39.4317 127.379 39.324 126.892 39.324C126.416 39.324 125.974 39.4317 125.566 39.647C125.169 39.8623 124.852 40.1683 124.614 40.565C124.376 40.9617 124.257 41.4207 124.257 41.942C124.257 42.452 124.376 42.9053 124.614 43.302C124.852 43.6873 125.169 43.9877 125.566 44.203C125.962 44.4183 126.404 44.526 126.892 44.526ZM135.303 44.067C134.567 44.067 133.983 43.8743 133.552 43.489C133.133 43.0923 132.906 42.5483 132.872 41.857C132.861 41.6643 132.855 41.415 132.855 41.109C132.855 40.7803 132.861 40.514 132.872 40.31C132.906 39.6073 133.127 39.052 133.535 38.644C133.943 38.2247 134.533 38.015 135.303 38.015C136.074 38.015 136.663 38.2247 137.071 38.644C137.491 39.052 137.717 39.6073 137.751 40.31C137.774 40.718 137.785 40.9843 137.785 41.109C137.785 41.2223 137.774 41.4717 137.751 41.857C137.717 42.5483 137.485 43.0923 137.054 43.489C136.624 43.8743 136.04 44.067 135.303 44.067ZM133.875 50C133.773 50 133.688 49.9717 133.62 49.915C133.552 49.847 133.518 49.762 133.518 49.66C133.518 49.592 133.541 49.5297 133.586 49.473L141.984 38.423C142.075 38.2983 142.154 38.2133 142.222 38.168C142.302 38.1227 142.409 38.1 142.545 38.1H143.089C143.191 38.1 143.271 38.134 143.327 38.202C143.395 38.2587 143.429 38.338 143.429 38.44C143.429 38.508 143.407 38.5703 143.361 38.627L134.98 49.677C134.89 49.7903 134.805 49.8753 134.725 49.932C134.657 49.9773 134.555 50 134.419 50H133.875ZM135.303 43.03C135.711 43.03 136.012 42.911 136.204 42.673C136.397 42.435 136.51 42.1403 136.544 41.789C136.567 41.381 136.578 41.143 136.578 41.075C136.578 40.973 136.567 40.7407 136.544 40.378C136.522 40.0267 136.408 39.732 136.204 39.494C136.012 39.2447 135.711 39.12 135.303 39.12C134.895 39.12 134.595 39.2447 134.402 39.494C134.21 39.732 134.102 40.0267 134.079 40.378C134.068 40.5593 134.062 40.7917 134.062 41.075C134.062 41.347 134.068 41.585 134.079 41.789C134.113 42.129 134.221 42.4237 134.402 42.673C134.595 42.911 134.895 43.03 135.303 43.03ZM141.627 50.102C140.891 50.102 140.307 49.8923 139.876 49.473C139.457 49.0537 139.23 48.4983 139.196 47.807C139.174 47.467 139.162 47.2403 139.162 47.127C139.162 47.0137 139.174 46.7303 139.196 46.277C139.23 45.5743 139.451 45.019 139.859 44.611C140.267 44.1917 140.857 43.982 141.627 43.982C142.398 43.982 142.987 44.1917 143.395 44.611C143.815 45.019 144.041 45.5743 144.075 46.277C144.098 46.685 144.109 46.9457 144.109 47.059C144.109 47.1723 144.098 47.4217 144.075 47.807C144.041 48.4983 143.809 49.0537 143.378 49.473C142.948 49.8923 142.364 50.102 141.627 50.102ZM141.627 48.997C142.035 48.997 142.336 48.878 142.528 48.64C142.721 48.402 142.834 48.1073 142.868 47.756C142.891 47.348 142.902 47.1043 142.902 47.025C142.902 46.9343 142.891 46.7077 142.868 46.345C142.846 45.9937 142.732 45.699 142.528 45.461C142.336 45.2117 142.035 45.087 141.627 45.087C141.219 45.087 140.919 45.2117 140.726 45.461C140.534 45.699 140.426 45.9937 140.403 46.345C140.392 46.5263 140.386 46.753 140.386 47.025C140.386 47.3083 140.392 47.552 140.403 47.756C140.426 48.096 140.534 48.3907 140.726 48.64C140.919 48.878 141.219 48.997 141.627 48.997ZM154.12 49.439C154.007 49.439 153.911 49.405 153.831 49.337C153.763 49.2577 153.729 49.1613 153.729 49.048V45.495H150.21C150.097 45.495 150.001 45.461 149.921 45.393C149.853 45.3137 149.819 45.2173 149.819 45.104V44.594C149.819 44.4807 149.853 44.39 149.921 44.322C150.001 44.2427 150.097 44.203 150.21 44.203H153.729V40.752C153.729 40.6273 153.763 40.531 153.831 40.463C153.911 40.395 154.007 40.361 154.12 40.361H154.664C154.789 40.361 154.885 40.395 154.953 40.463C155.021 40.531 155.055 40.6273 155.055 40.752V44.203H158.574C158.688 44.203 158.778 44.2427 158.846 44.322C158.926 44.39 158.965 44.4807 158.965 44.594V45.104C158.965 45.2173 158.926 45.3137 158.846 45.393C158.778 45.461 158.688 45.495 158.574 45.495H155.055V49.048C155.055 49.1613 155.016 49.2577 154.936 49.337C154.868 49.405 154.778 49.439 154.664 49.439H154.12ZM175.169 46.345C175.271 46.345 175.356 46.379 175.424 46.447C175.504 46.515 175.538 46.6 175.526 46.702C175.504 47.28 175.311 47.8353 174.948 48.368C174.586 48.9007 174.047 49.337 173.333 49.677C172.631 50.0057 171.775 50.17 170.766 50.17C169.316 50.17 168.199 49.796 167.417 49.048C166.635 48.2887 166.193 47.246 166.091 45.92H164.986C164.873 45.92 164.777 45.886 164.697 45.818C164.629 45.7387 164.595 45.6423 164.595 45.529V44.985C164.595 44.8717 164.629 44.781 164.697 44.713C164.777 44.6337 164.873 44.594 164.986 44.594H166.074V43.523H164.986C164.873 43.523 164.777 43.489 164.697 43.421C164.629 43.3417 164.595 43.2453 164.595 43.132V42.571C164.595 42.4577 164.629 42.367 164.697 42.299C164.777 42.2197 164.873 42.18 164.986 42.18H166.091C166.205 40.854 166.652 39.817 167.434 39.069C168.216 38.3097 169.327 37.93 170.766 37.93C171.775 37.93 172.631 38.1 173.333 38.44C174.047 38.7687 174.586 39.1993 174.948 39.732C175.311 40.2533 175.504 40.8087 175.526 41.398V41.432C175.526 41.5227 175.487 41.602 175.407 41.67C175.339 41.7267 175.26 41.755 175.169 41.755H174.302C174.189 41.755 174.098 41.7267 174.03 41.67C173.974 41.6133 173.923 41.5113 173.877 41.364C173.685 40.6387 173.328 40.1173 172.806 39.8C172.285 39.4827 171.605 39.324 170.766 39.324C168.93 39.324 167.922 40.276 167.74 42.18H171.14C171.254 42.18 171.344 42.2197 171.412 42.299C171.492 42.367 171.531 42.4577 171.531 42.571V43.132C171.531 43.2453 171.492 43.3417 171.412 43.421C171.344 43.489 171.254 43.523 171.14 43.523H167.706V44.594H171.14C171.265 44.594 171.361 44.628 171.429 44.696C171.497 44.764 171.531 44.8603 171.531 44.985V45.529C171.531 45.6423 171.497 45.7387 171.429 45.818C171.361 45.886 171.265 45.92 171.14 45.92H167.74C167.922 47.8127 168.93 48.759 170.766 48.759C171.605 48.759 172.285 48.6003 172.806 48.283C173.328 47.9657 173.685 47.45 173.877 46.736C173.923 46.5887 173.974 46.4867 174.03 46.43C174.098 46.3733 174.189 46.345 174.302 46.345H175.169ZM181.853 50.17C180.391 50.17 179.32 49.745 178.64 48.895C177.972 48.0337 177.615 46.9117 177.569 45.529L177.552 44.067L177.569 42.554C177.603 41.1827 177.96 40.072 178.64 39.222C179.332 38.3607 180.403 37.93 181.853 37.93C183.315 37.93 184.386 38.3607 185.066 39.222C185.758 40.072 186.12 41.1827 186.154 42.554C186.166 42.8713 186.171 43.3757 186.171 44.067C186.171 44.7357 186.166 45.223 186.154 45.529C186.109 46.9117 185.746 48.0337 185.066 48.895C184.398 49.745 183.327 50.17 181.853 50.17ZM181.853 48.759C182.726 48.759 183.383 48.47 183.825 47.892C184.267 47.314 184.5 46.498 184.522 45.444C184.534 45.1153 184.539 44.645 184.539 44.033C184.539 43.4097 184.534 42.945 184.522 42.639C184.5 41.5963 184.262 40.786 183.808 40.208C183.366 39.6187 182.715 39.324 181.853 39.324C180.992 39.324 180.34 39.6187 179.898 40.208C179.456 40.786 179.224 41.5963 179.201 42.639L179.184 44.033L179.201 45.444C179.224 46.498 179.456 47.314 179.898 47.892C180.34 48.47 180.992 48.759 181.853 48.759ZM188.521 50C188.407 50 188.311 49.966 188.232 49.898C188.164 49.8187 188.13 49.7223 188.13 49.609V48.436C188.13 48.3227 188.164 48.2263 188.232 48.147C188.311 48.0677 188.407 48.028 188.521 48.028H189.694C189.807 48.028 189.898 48.0677 189.966 48.147C190.045 48.2263 190.085 48.3227 190.085 48.436V49.609C190.085 49.7223 190.045 49.8187 189.966 49.898C189.898 49.966 189.807 50 189.694 50H188.521ZM192.448 50C192.334 50 192.238 49.966 192.159 49.898C192.091 49.8187 192.057 49.7223 192.057 49.609V49.099C192.057 48.8383 192.198 48.589 192.482 48.351L196.188 44.662C197.026 43.948 197.604 43.3643 197.922 42.911C198.239 42.4577 198.398 41.976 198.398 41.466C198.398 40.7973 198.211 40.276 197.837 39.902C197.463 39.5167 196.919 39.324 196.205 39.324C195.525 39.324 194.986 39.5223 194.59 39.919C194.193 40.3157 193.949 40.8483 193.859 41.517C193.836 41.6417 193.779 41.738 193.689 41.806C193.598 41.874 193.507 41.908 193.417 41.908H192.601C192.499 41.908 192.414 41.874 192.346 41.806C192.278 41.738 192.244 41.6587 192.244 41.568C192.266 40.9673 192.425 40.3893 192.72 39.834C193.026 39.2673 193.473 38.8083 194.063 38.457C194.652 38.0943 195.366 37.913 196.205 37.913C197.474 37.913 198.426 38.2473 199.061 38.916C199.707 39.5733 200.03 40.412 200.03 41.432C200.03 42.146 199.854 42.792 199.503 43.37C199.163 43.9367 198.624 44.5373 197.888 45.172L194.539 48.572H199.894C200.018 48.572 200.115 48.606 200.183 48.674C200.251 48.742 200.285 48.8383 200.285 48.963V49.609C200.285 49.7223 200.245 49.8187 200.166 49.898C200.098 49.966 200.007 50 199.894 50H192.448ZM206.098 50.17C205.248 50.17 204.512 50.017 203.888 49.711C203.265 49.405 202.789 49.0083 202.46 48.521C202.132 48.0223 201.956 47.4897 201.933 46.923V46.889C201.933 46.7983 201.967 46.7247 202.035 46.668C202.103 46.6113 202.183 46.583 202.273 46.583H203.106C203.344 46.583 203.497 46.7077 203.565 46.957C203.735 47.569 204.047 48.028 204.5 48.334C204.965 48.6287 205.498 48.776 206.098 48.776C206.869 48.776 207.509 48.5437 208.019 48.079C208.529 47.603 208.784 46.9513 208.784 46.124C208.784 45.3647 208.529 44.764 208.019 44.322C207.509 43.8687 206.869 43.642 206.098 43.642C205.69 43.642 205.362 43.693 205.112 43.795C204.863 43.897 204.608 44.0443 204.347 44.237C204.2 44.3503 204.075 44.4353 203.973 44.492C203.883 44.5373 203.781 44.56 203.667 44.56H202.851C202.749 44.56 202.659 44.526 202.579 44.458C202.5 44.3787 202.466 44.288 202.477 44.186L203.004 38.525C203.038 38.2417 203.18 38.1 203.429 38.1H209.311C209.436 38.1 209.532 38.134 209.6 38.202C209.668 38.27 209.702 38.3663 209.702 38.491V39.12C209.702 39.2333 209.663 39.324 209.583 39.392C209.515 39.46 209.425 39.494 209.311 39.494H204.415L204.109 42.911C204.653 42.5257 205.384 42.333 206.302 42.333C207.062 42.333 207.753 42.486 208.376 42.792C209 43.0867 209.493 43.523 209.855 44.101C210.229 44.679 210.416 45.3647 210.416 46.158C210.416 46.9967 210.229 47.722 209.855 48.334C209.493 48.9347 208.983 49.3937 208.325 49.711C207.679 50.017 206.937 50.17 206.098 50.17ZM217.079 53.23C216.965 53.23 216.869 53.196 216.79 53.128C216.722 53.06 216.688 52.9637 216.688 52.839V41.551C216.688 41.4263 216.722 41.33 216.79 41.262C216.869 41.194 216.965 41.16 217.079 41.16H217.793C217.917 41.16 218.014 41.194 218.082 41.262C218.15 41.33 218.184 41.4263 218.184 41.551V42.299C218.841 41.4263 219.776 40.99 220.989 40.99C222.179 40.99 223.068 41.3697 223.658 42.129C224.258 42.877 224.576 43.8347 224.61 45.002C224.621 45.1267 224.627 45.3193 224.627 45.58C224.627 45.8407 224.621 46.0333 224.61 46.158C224.576 47.314 224.258 48.2717 223.658 49.031C223.068 49.7903 222.179 50.17 220.989 50.17C219.776 50.17 218.858 49.7393 218.235 48.878V52.839C218.235 52.9523 218.195 53.043 218.116 53.111C218.048 53.1903 217.957 53.23 217.844 53.23H217.079ZM220.666 48.844C221.482 48.844 222.077 48.589 222.451 48.079C222.825 47.569 223.029 46.9003 223.063 46.073C223.074 45.9597 223.08 45.7953 223.08 45.58C223.08 43.404 222.275 42.316 220.666 42.316C219.872 42.316 219.272 42.5823 218.864 43.115C218.467 43.6363 218.257 44.254 218.235 44.968C218.223 45.0927 218.218 45.3137 218.218 45.631C218.218 45.9483 218.223 46.1693 218.235 46.294C218.257 46.9853 218.473 47.586 218.881 48.096C219.3 48.5947 219.895 48.844 220.666 48.844ZM230.266 50.17C229.11 50.17 228.187 49.813 227.495 49.099C226.804 48.3737 226.424 47.3877 226.356 46.141L226.339 45.563L226.356 45.002C226.424 43.778 226.804 42.8033 227.495 42.078C228.187 41.3527 229.11 40.99 230.266 40.99C231.513 40.99 232.476 41.3867 233.156 42.18C233.848 42.9733 234.193 44.05 234.193 45.41V45.716C234.193 45.8293 234.154 45.9257 234.074 46.005C234.006 46.073 233.916 46.107 233.802 46.107H227.903V46.26C227.937 46.9967 228.164 47.6257 228.583 48.147C229.003 48.6683 229.558 48.929 230.249 48.929C230.782 48.929 231.213 48.827 231.541 48.623C231.881 48.4077 232.136 48.1867 232.306 47.96C232.408 47.824 232.488 47.7447 232.544 47.722C232.601 47.688 232.697 47.671 232.833 47.671H233.581C233.683 47.671 233.768 47.6993 233.836 47.756C233.916 47.8127 233.955 47.8863 233.955 47.977C233.955 48.2263 233.802 48.5267 233.496 48.878C233.19 49.2293 232.754 49.5353 232.187 49.796C231.632 50.0453 230.992 50.17 230.266 50.17ZM232.646 44.951V44.9C232.646 44.1067 232.431 43.4607 232 42.962C231.57 42.4633 230.992 42.214 230.266 42.214C229.53 42.214 228.952 42.4633 228.532 42.962C228.113 43.4607 227.903 44.1067 227.903 44.9V44.951H232.646ZM236.651 50C236.538 50 236.442 49.966 236.362 49.898C236.294 49.8187 236.26 49.7223 236.26 49.609V41.568C236.26 41.4547 236.294 41.3583 236.362 41.279C236.442 41.1997 236.538 41.16 236.651 41.16H237.365C237.49 41.16 237.586 41.1997 237.654 41.279C237.734 41.347 237.773 41.4433 237.773 41.568V42.316C238.238 41.5453 239.026 41.16 240.136 41.16H240.799C240.924 41.16 241.02 41.194 241.088 41.262C241.156 41.33 241.19 41.4263 241.19 41.551V42.18C241.19 42.2933 241.156 42.3897 241.088 42.469C241.02 42.537 240.924 42.571 240.799 42.571H239.83C239.207 42.571 238.714 42.7523 238.351 43.115C238 43.4777 237.824 43.9707 237.824 44.594V49.609C237.824 49.7223 237.785 49.8187 237.705 49.898C237.626 49.966 237.53 50 237.416 50H236.651ZM109.683 77.23C109.57 77.23 109.473 77.196 109.394 77.128C109.326 77.06 109.292 76.9637 109.292 76.839V65.551C109.292 65.4263 109.326 65.33 109.394 65.262C109.473 65.194 109.57 65.16 109.683 65.16H110.397C110.522 65.16 110.618 65.194 110.686 65.262C110.754 65.33 110.788 65.4263 110.788 65.551V66.299C111.445 65.4263 112.38 64.99 113.593 64.99C114.783 64.99 115.673 65.3697 116.262 66.129C116.863 66.877 117.18 67.8347 117.214 69.002C117.225 69.1267 117.231 69.3193 117.231 69.58C117.231 69.8407 117.225 70.0333 117.214 70.158C117.18 71.314 116.863 72.2717 116.262 73.031C115.673 73.7903 114.783 74.17 113.593 74.17C112.38 74.17 111.462 73.7393 110.839 72.878V76.839C110.839 76.9523 110.799 77.043 110.72 77.111C110.652 77.1903 110.561 77.23 110.448 77.23H109.683ZM113.27 72.844C114.086 72.844 114.681 72.589 115.055 72.079C115.429 71.569 115.633 70.9003 115.667 70.073C115.678 69.9597 115.684 69.7953 115.684 69.58C115.684 67.404 114.879 66.316 113.27 66.316C112.477 66.316 111.876 66.5823 111.468 67.115C111.071 67.6363 110.862 68.254 110.839 68.968C110.828 69.0927 110.822 69.3137 110.822 69.631C110.822 69.9483 110.828 70.1693 110.839 70.294C110.862 70.9853 111.077 71.586 111.485 72.096C111.904 72.5947 112.499 72.844 113.27 72.844ZM121.817 74.17C121.261 74.17 120.746 74.0567 120.27 73.83C119.805 73.6033 119.431 73.2973 119.148 72.912C118.876 72.5153 118.74 72.079 118.74 71.603C118.74 70.855 119.046 70.243 119.658 69.767C120.27 69.291 121.103 68.9737 122.157 68.815L124.707 68.458V67.965C124.707 66.7977 124.032 66.214 122.684 66.214C122.162 66.214 121.743 66.3217 121.426 66.537C121.108 66.741 120.876 66.9847 120.729 67.268C120.683 67.3813 120.632 67.4607 120.576 67.506C120.53 67.54 120.462 67.557 120.372 67.557H119.709C119.607 67.557 119.516 67.523 119.437 67.455C119.369 67.3757 119.335 67.285 119.335 67.183C119.335 66.9223 119.454 66.622 119.692 66.282C119.941 65.9307 120.321 65.6303 120.831 65.381C121.341 65.1203 121.964 64.99 122.701 64.99C123.97 64.99 124.877 65.2847 125.421 65.874C125.976 66.4633 126.254 67.2 126.254 68.084V73.609C126.254 73.7223 126.214 73.8187 126.135 73.898C126.067 73.966 125.976 74 125.863 74H125.115C125.001 74 124.911 73.966 124.843 73.898C124.775 73.8187 124.741 73.7223 124.741 73.609V72.861C124.491 73.235 124.129 73.5467 123.653 73.796C123.177 74.0453 122.565 74.17 121.817 74.17ZM122.157 72.929C122.905 72.929 123.517 72.6853 123.993 72.198C124.469 71.7107 124.707 71.0023 124.707 70.073V69.597L122.718 69.886C121.902 69.9993 121.284 70.192 120.865 70.464C120.445 70.736 120.236 71.076 120.236 71.484C120.236 71.9487 120.423 72.3057 120.797 72.555C121.182 72.8043 121.635 72.929 122.157 72.929ZM130.08 77.23C129.978 77.23 129.893 77.196 129.825 77.128C129.757 77.06 129.723 76.9807 129.723 76.89C129.723 76.856 129.751 76.754 129.808 76.584L131.134 73.473L127.887 65.806C127.819 65.67 127.785 65.5737 127.785 65.517C127.796 65.415 127.836 65.33 127.904 65.262C127.972 65.194 128.051 65.16 128.142 65.16H128.924C129.105 65.16 129.241 65.2507 129.332 65.432L131.95 71.688L134.636 65.432C134.726 65.2507 134.862 65.16 135.044 65.16H135.809C135.899 65.16 135.979 65.194 136.047 65.262C136.115 65.33 136.149 65.4093 136.149 65.5C136.149 65.5793 136.12 65.6813 136.064 65.806L131.253 76.958C131.196 77.0487 131.134 77.1167 131.066 77.162C131.009 77.2073 130.93 77.23 130.828 77.23H130.08ZM138.254 74C138.141 74 138.044 73.966 137.965 73.898C137.897 73.8187 137.863 73.7223 137.863 73.609V65.551C137.863 65.4377 137.897 65.347 137.965 65.279C138.044 65.1997 138.141 65.16 138.254 65.16H138.968C139.081 65.16 139.172 65.1997 139.24 65.279C139.308 65.347 139.342 65.4377 139.342 65.551V66.129C139.954 65.3697 140.781 64.99 141.824 64.99C143.071 64.99 143.955 65.5113 144.476 66.554C144.748 66.078 145.133 65.6983 145.632 65.415C146.142 65.1317 146.709 64.99 147.332 64.99C148.261 64.99 149.021 65.3073 149.61 65.942C150.199 66.5767 150.494 67.4947 150.494 68.696V73.609C150.494 73.7223 150.454 73.8187 150.375 73.898C150.307 73.966 150.216 74 150.103 74H149.372C149.259 74 149.162 73.966 149.083 73.898C149.015 73.8187 148.981 73.7223 148.981 73.609V68.849C148.981 67.9423 148.794 67.2963 148.42 66.911C148.046 66.5143 147.553 66.316 146.941 66.316C146.397 66.316 145.927 66.52 145.53 66.928C145.145 67.3247 144.952 67.965 144.952 68.849V73.609C144.952 73.7223 144.912 73.8187 144.833 73.898C144.765 73.966 144.674 74 144.561 74H143.813C143.7 74 143.603 73.966 143.524 73.898C143.456 73.8187 143.422 73.7223 143.422 73.609V68.849C143.422 67.9537 143.224 67.3077 142.827 66.911C142.442 66.5143 141.96 66.316 141.382 66.316C140.838 66.316 140.368 66.5143 139.971 66.911C139.586 67.3077 139.393 67.948 139.393 68.832V73.609C139.393 73.7223 139.353 73.8187 139.274 73.898C139.206 73.966 139.115 74 139.002 74H138.254ZM156.456 74.17C155.3 74.17 154.376 73.813 153.685 73.099C152.993 72.3737 152.614 71.3877 152.546 70.141L152.529 69.563L152.546 69.002C152.614 67.778 152.993 66.8033 153.685 66.078C154.376 65.3527 155.3 64.99 156.456 64.99C157.702 64.99 158.666 65.3867 159.346 66.18C160.037 66.9733 160.383 68.05 160.383 69.41V69.716C160.383 69.8293 160.343 69.9257 160.264 70.005C160.196 70.073 160.105 70.107 159.992 70.107H154.093V70.26C154.127 70.9967 154.353 71.6257 154.773 72.147C155.192 72.6683 155.747 72.929 156.439 72.929C156.971 72.929 157.402 72.827 157.731 72.623C158.071 72.4077 158.326 72.1867 158.496 71.96C158.598 71.824 158.677 71.7447 158.734 71.722C158.79 71.688 158.887 71.671 159.023 71.671H159.771C159.873 71.671 159.958 71.6993 160.026 71.756C160.105 71.8127 160.145 71.8863 160.145 71.977C160.145 72.2263 159.992 72.5267 159.686 72.878C159.38 73.2293 158.943 73.5353 158.377 73.796C157.821 74.0453 157.181 74.17 156.456 74.17ZM158.836 68.951V68.9C158.836 68.1067 158.62 67.4607 158.19 66.962C157.759 66.4633 157.181 66.214 156.456 66.214C155.719 66.214 155.141 66.4633 154.722 66.962C154.302 67.4607 154.093 68.1067 154.093 68.9V68.951H158.836ZM162.841 74C162.727 74 162.631 73.966 162.552 73.898C162.484 73.8187 162.45 73.7223 162.45 73.609V65.551C162.45 65.4377 162.484 65.347 162.552 65.279C162.631 65.1997 162.727 65.16 162.841 65.16H163.572C163.696 65.16 163.793 65.194 163.861 65.262C163.929 65.33 163.963 65.4263 163.963 65.551V66.299C164.303 65.8797 164.694 65.5567 165.136 65.33C165.589 65.1033 166.15 64.99 166.819 64.99C167.907 64.99 168.751 65.3413 169.352 66.044C169.952 66.7353 170.253 67.6533 170.253 68.798V73.609C170.253 73.7223 170.213 73.8187 170.134 73.898C170.066 73.966 169.975 74 169.862 74H169.08C168.966 74 168.87 73.966 168.791 73.898C168.723 73.8187 168.689 73.7223 168.689 73.609V68.9C168.689 68.084 168.49 67.4493 168.094 66.996C167.697 66.5427 167.13 66.316 166.394 66.316C165.668 66.316 165.09 66.5483 164.66 67.013C164.229 67.4663 164.014 68.0953 164.014 68.9V73.609C164.014 73.7223 163.974 73.8187 163.895 73.898C163.827 73.966 163.736 74 163.623 74H162.841ZM175.993 74C174.237 74 173.358 73.0083 173.358 71.025V66.469H172.015C171.902 66.469 171.811 66.435 171.743 66.367C171.675 66.299 171.641 66.2083 171.641 66.095V65.551C171.641 65.4377 171.675 65.347 171.743 65.279C171.811 65.1997 171.902 65.16 172.015 65.16H173.358V62.321C173.358 62.2077 173.392 62.117 173.46 62.049C173.528 61.9697 173.619 61.93 173.732 61.93H174.48C174.594 61.93 174.684 61.9697 174.752 62.049C174.832 62.117 174.871 62.2077 174.871 62.321V65.16H176.979C177.093 65.16 177.183 65.1997 177.251 65.279C177.331 65.347 177.37 65.4377 177.37 65.551V66.095C177.37 66.2083 177.331 66.299 177.251 66.367C177.183 66.435 177.093 66.469 176.979 66.469H174.871V70.906C174.871 71.484 174.962 71.9203 175.143 72.215C175.336 72.5097 175.659 72.657 176.112 72.657H177.149C177.263 72.657 177.353 72.6967 177.421 72.776C177.489 72.844 177.523 72.9347 177.523 73.048V73.609C177.523 73.7223 177.489 73.8187 177.421 73.898C177.353 73.966 177.263 74 177.149 74H175.993Z" fill="#A19FB0"/>
<rect width="84" height="84" rx="16" fill="white"/>
<circle cx="35.8251" cy="36.5627" r="3.92352" fill="#2F2B5B"/>
<circle cx="48.5751" cy="49.3127" r="3.92352" fill="#2F2B5B"/>
<path fill-rule="evenodd" clip-rule="evenodd" d="M53.1047 31.8196C53.5574 32.2722 53.6435 32.9199 53.2972 33.2663L33.2664 53.2971C32.92 53.6434 32.2723 53.5573 31.8197 53.1046C31.367 52.6519 31.2808 52.0042 31.6272 51.6579L51.658 31.6271C52.0043 31.2807 52.6521 31.3669 53.1047 31.8196Z" fill="#2F2B5B"/>
</svg>
