<svg width="340" height="84" viewBox="0 0 340 84" fill="none" xmlns="http://www.w3.org/2000/svg">
<path d="M118.54 20.3C118.38 20.3 118.24 20.2533 118.12 20.16C118.013 20.08 117.913 19.9733 117.82 19.84L117.08 18.84C116.467 19.08 115.753 19.2 114.94 19.2C113.127 19.2 111.713 18.74 110.7 17.82C109.687 16.9 109.147 15.5333 109.08 13.72C109.067 13.3333 109.06 12.7667 109.06 12.02C109.06 11.26 109.067 10.6867 109.08 10.3C109.133 8.52667 109.68 7.16667 110.72 6.22C111.773 5.27333 113.18 4.8 114.94 4.8C116.7 4.8 118.1 5.27333 119.14 6.22C120.18 7.16667 120.727 8.52667 120.78 10.3C120.807 11.0733 120.82 11.6467 120.82 12.02C120.82 12.38 120.807 12.9467 120.78 13.72C120.727 15.4533 120.247 16.78 119.34 17.7L120.74 19.68C120.78 19.76 120.8 19.8267 120.8 19.88V19.92C120.8 20.0267 120.76 20.1133 120.68 20.18C120.6 20.26 120.507 20.3 120.4 20.3H118.54ZM114.94 16.9C115.833 16.9 116.54 16.6333 117.06 16.1C117.593 15.5533 117.88 14.7267 117.92 13.62C117.947 12.82 117.96 12.28 117.96 12C117.96 11.6933 117.947 11.1533 117.92 10.38C117.88 9.27333 117.593 8.45333 117.06 7.92C116.527 7.37333 115.82 7.1 114.94 7.1C114.047 7.1 113.333 7.37333 112.8 7.92C112.267 8.45333 111.98 9.27333 111.94 10.38C111.927 10.7667 111.92 11.3067 111.92 12C111.92 12.68 111.927 13.22 111.94 13.62C111.98 14.7267 112.267 15.5533 112.8 16.1C113.333 16.6333 114.047 16.9 114.94 16.9ZM127.086 19.2C125.86 19.2 124.893 18.8 124.186 18C123.48 17.1867 123.126 16.0867 123.126 14.7V9.08C123.126 8.94667 123.173 8.83333 123.266 8.74C123.36 8.64667 123.473 8.6 123.606 8.6H125.366C125.513 8.6 125.626 8.64667 125.706 8.74C125.8 8.82 125.846 8.93333 125.846 9.08V14.58C125.846 16.2333 126.573 17.06 128.026 17.06C128.72 17.06 129.266 16.84 129.666 16.4C130.08 15.96 130.286 15.3533 130.286 14.58V9.08C130.286 8.94667 130.333 8.83333 130.426 8.74C130.52 8.64667 130.633 8.6 130.766 8.6H132.526C132.673 8.6 132.786 8.64667 132.866 8.74C132.96 8.82 133.006 8.93333 133.006 9.08V18.52C133.006 18.6533 132.96 18.7667 132.866 18.86C132.786 18.9533 132.673 19 132.526 19H130.906C130.773 19 130.66 18.9533 130.566 18.86C130.473 18.7667 130.426 18.6533 130.426 18.52V17.7C129.68 18.7 128.566 19.2 127.086 19.2ZM136.048 6.88C135.915 6.88 135.801 6.83333 135.708 6.74C135.615 6.64667 135.568 6.53333 135.568 6.4V4.96C135.568 4.82667 135.615 4.71333 135.708 4.62C135.801 4.52667 135.915 4.48 136.048 4.48H137.868C138.001 4.48 138.115 4.52667 138.208 4.62C138.315 4.71333 138.368 4.82667 138.368 4.96V6.4C138.368 6.53333 138.321 6.64667 138.228 6.74C138.135 6.83333 138.015 6.88 137.868 6.88H136.048ZM136.128 19C135.995 19 135.881 18.9533 135.788 18.86C135.695 18.7667 135.648 18.6533 135.648 18.52V9.08C135.648 8.94667 135.695 8.83333 135.788 8.74C135.881 8.64667 135.995 8.6 136.128 8.6H137.788C137.935 8.6 138.048 8.64667 138.128 8.74C138.221 8.82 138.268 8.93333 138.268 9.08V18.52C138.268 18.6533 138.221 18.7667 138.128 18.86C138.048 18.9533 137.935 19 137.788 19H136.128ZM145.422 19.2C143.955 19.2 142.782 18.7933 141.902 17.98C141.035 17.1667 140.575 16.04 140.522 14.6L140.502 13.8L140.522 13C140.575 11.56 141.035 10.4333 141.902 9.62C142.782 8.80667 143.955 8.4 145.422 8.4C146.462 8.4 147.342 8.58667 148.062 8.96C148.795 9.33333 149.335 9.79333 149.682 10.34C150.042 10.8733 150.235 11.38 150.262 11.86C150.275 11.9933 150.228 12.1067 150.122 12.2C150.028 12.2933 149.915 12.34 149.782 12.34H148.022C147.888 12.34 147.782 12.3133 147.702 12.26C147.635 12.1933 147.568 12.0867 147.502 11.94C147.302 11.42 147.035 11.0467 146.702 10.82C146.382 10.5933 145.968 10.48 145.462 10.48C144.782 10.48 144.248 10.7 143.862 11.14C143.475 11.5667 143.268 12.22 143.242 13.1L143.222 13.84L143.242 14.5C143.295 16.2467 144.035 17.12 145.462 17.12C145.982 17.12 146.402 17.0067 146.722 16.78C147.042 16.5533 147.302 16.18 147.502 15.66C147.568 15.5133 147.635 15.4133 147.702 15.36C147.782 15.2933 147.888 15.26 148.022 15.26H149.782C149.915 15.26 150.028 15.3067 150.122 15.4C150.228 15.4933 150.275 15.6067 150.262 15.74C150.235 16.2067 150.048 16.7067 149.702 17.24C149.355 17.7733 148.822 18.2333 148.102 18.62C147.382 19.0067 146.488 19.2 145.422 19.2ZM152.847 19C152.714 19 152.601 18.9533 152.507 18.86C152.414 18.7667 152.367 18.6533 152.367 18.52V5.28C152.367 5.13333 152.414 5.02 152.507 4.94C152.601 4.84667 152.714 4.8 152.847 4.8H154.467C154.614 4.8 154.727 4.84667 154.807 4.94C154.901 5.02 154.947 5.13333 154.947 5.28V12.12L158.307 8.94C158.347 8.91333 158.414 8.86 158.507 8.78C158.587 8.71333 158.667 8.66667 158.747 8.64C158.827 8.61333 158.927 8.6 159.047 8.6H160.907C161.041 8.6 161.147 8.64 161.227 8.72C161.307 8.8 161.347 8.90667 161.347 9.04C161.347 9.16 161.281 9.28 161.147 9.4L157.027 13.26L161.647 18.22C161.781 18.3533 161.847 18.4667 161.847 18.56C161.847 18.6933 161.801 18.8 161.707 18.88C161.627 18.96 161.527 19 161.407 19H159.507C159.321 19 159.181 18.98 159.087 18.94C159.007 18.8867 158.901 18.7933 158.767 18.66L154.947 14.64V18.52C154.947 18.6533 154.901 18.7667 154.807 18.86C154.727 18.9533 154.614 19 154.467 19H152.847ZM168.257 19C168.124 19 168.01 18.9533 167.917 18.86C167.824 18.7667 167.777 18.6533 167.777 18.52V9.1C167.777 8.96667 167.824 8.85333 167.917 8.76C168.01 8.65333 168.124 8.6 168.257 8.6H169.877C170.024 8.6 170.144 8.64667 170.237 8.74C170.33 8.83333 170.377 8.95333 170.377 9.1V9.92C170.697 9.49333 171.097 9.16667 171.577 8.94C172.07 8.71333 172.63 8.6 173.257 8.6H174.077C174.224 8.6 174.337 8.64667 174.417 8.74C174.51 8.82 174.557 8.93333 174.557 9.08V10.52C174.557 10.6533 174.51 10.7667 174.417 10.86C174.337 10.9533 174.224 11 174.077 11H172.517C171.89 11 171.397 11.18 171.037 11.54C170.677 11.9 170.497 12.3933 170.497 13.02V18.52C170.497 18.6533 170.45 18.7667 170.357 18.86C170.264 18.9533 170.144 19 169.997 19H168.257ZM180.46 19.2C178.98 19.2 177.8 18.7733 176.92 17.92C176.053 17.0533 175.593 15.84 175.54 14.28L175.52 13.78L175.54 13.28C175.607 11.76 176.073 10.5667 176.94 9.7C177.82 8.83333 178.993 8.4 180.46 8.4C182.033 8.4 183.247 8.88 184.1 9.84C184.967 10.8 185.4 12.08 185.4 13.68V14.1C185.4 14.2333 185.353 14.3467 185.26 14.44C185.167 14.5333 185.047 14.58 184.9 14.58H178.26V14.74C178.287 15.4733 178.487 16.0933 178.86 16.6C179.247 17.0933 179.773 17.34 180.44 17.34C181.227 17.34 181.86 17.0333 182.34 16.42C182.46 16.2733 182.553 16.18 182.62 16.14C182.7 16.1 182.813 16.08 182.96 16.08H184.68C184.8 16.08 184.9 16.12 184.98 16.2C185.073 16.2667 185.12 16.3533 185.12 16.46C185.12 16.78 184.927 17.16 184.54 17.6C184.167 18.0267 183.627 18.4 182.92 18.72C182.213 19.04 181.393 19.2 180.46 19.2ZM182.68 12.9V12.84C182.68 12.0533 182.48 11.42 182.08 10.94C181.693 10.46 181.153 10.22 180.46 10.22C179.767 10.22 179.227 10.46 178.84 10.94C178.453 11.42 178.26 12.0533 178.26 12.84V12.9H182.68ZM192.023 19.2C190.556 19.2 189.383 18.7933 188.503 17.98C187.636 17.1667 187.176 16.04 187.123 14.6L187.103 13.8L187.123 13C187.176 11.56 187.636 10.4333 188.503 9.62C189.383 8.80667 190.556 8.4 192.023 8.4C193.063 8.4 193.943 8.58667 194.663 8.96C195.396 9.33333 195.936 9.79333 196.283 10.34C196.643 10.8733 196.836 11.38 196.863 11.86C196.876 11.9933 196.83 12.1067 196.723 12.2C196.63 12.2933 196.516 12.34 196.383 12.34H194.623C194.49 12.34 194.383 12.3133 194.303 12.26C194.236 12.1933 194.17 12.0867 194.103 11.94C193.903 11.42 193.636 11.0467 193.303 10.82C192.983 10.5933 192.57 10.48 192.063 10.48C191.383 10.48 190.85 10.7 190.463 11.14C190.076 11.5667 189.87 12.22 189.843 13.1L189.823 13.84L189.843 14.5C189.896 16.2467 190.636 17.12 192.063 17.12C192.583 17.12 193.003 17.0067 193.323 16.78C193.643 16.5533 193.903 16.18 194.103 15.66C194.17 15.5133 194.236 15.4133 194.303 15.36C194.383 15.2933 194.49 15.26 194.623 15.26H196.383C196.516 15.26 196.63 15.3067 196.723 15.4C196.83 15.4933 196.876 15.6067 196.863 15.74C196.836 16.2067 196.65 16.7067 196.303 17.24C195.956 17.7733 195.423 18.2333 194.703 18.62C193.983 19.0067 193.09 19.2 192.023 19.2ZM203.429 19.2C201.949 19.2 200.769 18.7733 199.889 17.92C199.022 17.0533 198.562 15.84 198.509 14.28L198.489 13.78L198.509 13.28C198.576 11.76 199.042 10.5667 199.909 9.7C200.789 8.83333 201.962 8.4 203.429 8.4C205.002 8.4 206.216 8.88 207.069 9.84C207.936 10.8 208.369 12.08 208.369 13.68V14.1C208.369 14.2333 208.322 14.3467 208.229 14.44C208.136 14.5333 208.016 14.58 207.869 14.58H201.229V14.74C201.256 15.4733 201.456 16.0933 201.829 16.6C202.216 17.0933 202.742 17.34 203.409 17.34C204.196 17.34 204.829 17.0333 205.309 16.42C205.429 16.2733 205.522 16.18 205.589 16.14C205.669 16.1 205.782 16.08 205.929 16.08H207.649C207.769 16.08 207.869 16.12 207.949 16.2C208.042 16.2667 208.089 16.3533 208.089 16.46C208.089 16.78 207.896 17.16 207.509 17.6C207.136 18.0267 206.596 18.4 205.889 18.72C205.182 19.04 204.362 19.2 203.429 19.2ZM205.649 12.9V12.84C205.649 12.0533 205.449 11.42 205.049 10.94C204.662 10.46 204.122 10.22 203.429 10.22C202.736 10.22 202.196 10.46 201.809 10.94C201.422 11.42 201.229 12.0533 201.229 12.84V12.9H205.649ZM210.892 6.88C210.759 6.88 210.645 6.83333 210.552 6.74C210.459 6.64667 210.412 6.53333 210.412 6.4V4.96C210.412 4.82667 210.459 4.71333 210.552 4.62C210.645 4.52667 210.759 4.48 210.892 4.48H212.712C212.845 4.48 212.959 4.52667 213.052 4.62C213.159 4.71333 213.212 4.82667 213.212 4.96V6.4C213.212 6.53333 213.165 6.64667 213.072 6.74C212.979 6.83333 212.859 6.88 212.712 6.88H210.892ZM210.972 19C210.839 19 210.725 18.9533 210.632 18.86C210.539 18.7667 210.492 18.6533 210.492 18.52V9.08C210.492 8.94667 210.539 8.83333 210.632 8.74C210.725 8.64667 210.839 8.6 210.972 8.6H212.632C212.779 8.6 212.892 8.64667 212.972 8.74C213.065 8.82 213.112 8.93333 213.112 9.08V18.52C213.112 18.6533 213.065 18.7667 212.972 18.86C212.892 18.9533 212.779 19 212.632 19H210.972ZM216.265 22.8C216.132 22.8 216.019 22.7533 215.925 22.66C215.832 22.58 215.785 22.4667 215.785 22.32V9.08C215.785 8.93333 215.832 8.82 215.925 8.74C216.019 8.64667 216.132 8.6 216.265 8.6H217.845C217.992 8.6 218.105 8.64667 218.185 8.74C218.279 8.82 218.325 8.93333 218.325 9.08V9.88C219.072 8.89333 220.139 8.4 221.525 8.4C222.872 8.4 223.905 8.82667 224.625 9.68C225.345 10.52 225.732 11.66 225.785 13.1C225.799 13.26 225.805 13.4933 225.805 13.8C225.805 14.12 225.799 14.36 225.785 14.52C225.732 15.92 225.345 17.0533 224.625 17.92C223.905 18.7733 222.872 19.2 221.525 19.2C220.179 19.2 219.152 18.7267 218.445 17.78V22.32C218.445 22.4667 218.399 22.58 218.305 22.66C218.225 22.7533 218.112 22.8 217.965 22.8H216.265ZM220.785 17.06C222.225 17.06 222.992 16.1733 223.085 14.4C223.099 14.2667 223.105 14.0667 223.105 13.8C223.105 13.5333 223.099 13.3333 223.085 13.2C222.992 11.4267 222.225 10.54 220.785 10.54C220.012 10.54 219.439 10.7867 219.065 11.28C218.692 11.7733 218.485 12.38 218.445 13.1L218.425 13.86L218.445 14.64C218.472 15.3067 218.679 15.88 219.065 16.36C219.465 16.8267 220.039 17.06 220.785 17.06ZM232.672 19C231.459 19 230.546 18.6867 229.932 18.06C229.332 17.42 229.032 16.4867 229.032 15.26V10.72H227.452C227.319 10.72 227.206 10.6733 227.112 10.58C227.019 10.4733 226.972 10.3533 226.972 10.22V9.08C226.972 8.94667 227.019 8.83333 227.112 8.74C227.206 8.64667 227.319 8.6 227.452 8.6H229.032V5.28C229.032 5.13333 229.079 5.02 229.172 4.94C229.266 4.84667 229.379 4.8 229.512 4.8H231.132C231.279 4.8 231.392 4.84667 231.472 4.94C231.566 5.02 231.612 5.13333 231.612 5.28V8.6H234.112C234.259 8.6 234.372 8.64667 234.452 8.74C234.546 8.82 234.592 8.93333 234.592 9.08V10.22C234.592 10.3667 234.546 10.4867 234.452 10.58C234.359 10.6733 234.246 10.72 234.112 10.72H231.612V15.06C231.612 15.6333 231.712 16.0667 231.912 16.36C232.112 16.6533 232.446 16.8 232.912 16.8H234.292C234.426 16.8 234.539 16.8467 234.632 16.94C234.726 17.0333 234.772 17.1467 234.772 17.28V18.52C234.772 18.6533 234.726 18.7667 234.632 18.86C234.552 18.9533 234.439 19 234.292 19H232.672Z" fill="white"/>
<path d="M113.389 50.17C111.927 50.17 110.856 49.745 110.176 48.895C109.496 48.045 109.133 46.9287 109.088 45.546C109.077 45.24 109.071 44.747 109.071 44.067C109.071 43.3643 109.077 42.8543 109.088 42.537C109.122 41.177 109.485 40.072 110.176 39.222C110.867 38.3607 111.938 37.93 113.389 37.93C114.851 37.93 115.928 38.3607 116.619 39.222C117.31 40.072 117.673 41.177 117.707 42.537C117.73 43.1717 117.741 43.6817 117.741 44.067C117.741 44.441 117.73 44.934 117.707 45.546C117.662 46.9287 117.299 48.045 116.619 48.895C115.939 49.745 114.862 50.17 113.389 50.17ZM113.389 48.708C114.239 48.708 114.879 48.4247 115.31 47.858C115.752 47.2913 115.984 46.4923 116.007 45.461C116.03 44.8037 116.041 44.3277 116.041 44.033C116.041 43.7157 116.03 43.251 116.007 42.639C115.984 41.619 115.758 40.82 115.327 40.242C114.896 39.664 114.25 39.375 113.389 39.375C112.539 39.375 111.893 39.664 111.451 40.242C111.02 40.82 110.794 41.619 110.771 42.639L110.754 44.033L110.771 45.461C110.794 46.4923 111.02 47.2913 111.451 47.858C111.893 48.4247 112.539 48.708 113.389 48.708ZM120.355 45.614C120.242 45.614 120.145 45.58 120.066 45.512C119.998 45.4327 119.964 45.3363 119.964 45.223V44.577C119.964 44.4637 119.998 44.373 120.066 44.305C120.145 44.2257 120.242 44.186 120.355 44.186H125.455C125.568 44.186 125.659 44.2257 125.727 44.305C125.806 44.373 125.846 44.4637 125.846 44.577V45.223C125.846 45.3363 125.806 45.4327 125.727 45.512C125.659 45.58 125.568 45.614 125.455 45.614H120.355ZM131.726 50.17C130.831 50.17 130.054 50.0283 129.397 49.745C128.751 49.4503 128.258 49.0707 127.918 48.606C127.589 48.1413 127.414 47.654 127.391 47.144C127.391 47.042 127.425 46.9627 127.493 46.906C127.561 46.838 127.646 46.804 127.748 46.804H128.581C128.819 46.804 128.978 46.9287 129.057 47.178C129.204 47.7447 129.522 48.147 130.009 48.385C130.496 48.6117 131.069 48.725 131.726 48.725C132.531 48.725 133.171 48.538 133.647 48.164C134.123 47.7787 134.361 47.229 134.361 46.515C134.361 45.1437 133.528 44.458 131.862 44.458H130.247C130.134 44.458 130.037 44.424 129.958 44.356C129.89 44.2767 129.856 44.1803 129.856 44.067V43.608C129.856 43.4493 129.918 43.2963 130.043 43.149L133.341 39.545H128.326C128.213 39.545 128.116 39.511 128.037 39.443C127.969 39.3637 127.935 39.2673 127.935 39.154V38.508C127.935 38.3947 127.969 38.2983 128.037 38.219C128.116 38.1397 128.213 38.1 128.326 38.1H135.109C135.234 38.1 135.33 38.1397 135.398 38.219C135.477 38.287 135.517 38.3833 135.517 38.508V39.12C135.517 39.256 135.455 39.3863 135.33 39.511L132.049 43.166L132.321 43.183C133.477 43.217 134.389 43.5173 135.058 44.084C135.727 44.6507 136.061 45.478 136.061 46.566C136.061 47.3027 135.874 47.943 135.5 48.487C135.126 49.031 134.61 49.4503 133.953 49.745C133.296 50.0283 132.553 50.17 131.726 50.17ZM145.525 50.17C144.346 50.17 143.457 49.7847 142.856 49.014C142.255 48.2433 141.938 47.2687 141.904 46.09L141.887 45.58L141.904 45.07C141.938 43.9027 142.255 42.9337 142.856 42.163C143.457 41.381 144.346 40.99 145.525 40.99C146.692 40.99 147.61 41.4037 148.279 42.231V38.321C148.279 38.2077 148.313 38.117 148.381 38.049C148.46 37.9697 148.557 37.93 148.67 37.93H149.486C149.599 37.93 149.69 37.9697 149.758 38.049C149.837 38.117 149.877 38.2077 149.877 38.321V49.609C149.877 49.7223 149.837 49.8187 149.758 49.898C149.69 49.966 149.599 50 149.486 50H148.721C148.608 50 148.511 49.966 148.432 49.898C148.364 49.8187 148.33 49.7223 148.33 49.609V48.895C147.673 49.745 146.738 50.17 145.525 50.17ZM145.882 48.793C146.664 48.793 147.248 48.538 147.633 48.028C148.03 47.5067 148.245 46.889 148.279 46.175C148.29 46.0503 148.296 45.835 148.296 45.529C148.296 45.2117 148.29 44.9907 148.279 44.866C148.256 44.1973 148.041 43.6137 147.633 43.115C147.225 42.6163 146.641 42.367 145.882 42.367C145.077 42.367 144.488 42.6163 144.114 43.115C143.751 43.6137 143.553 44.271 143.519 45.087L143.502 45.58C143.502 47.722 144.295 48.793 145.882 48.793ZM154.87 50.17C154.315 50.17 153.799 50.0567 153.323 49.83C152.847 49.6033 152.468 49.2973 152.184 48.912C151.912 48.5153 151.776 48.079 151.776 47.603C151.776 46.855 152.082 46.243 152.694 45.767C153.318 45.2797 154.156 44.9623 155.21 44.815L157.743 44.458V43.965C157.743 42.809 157.08 42.231 155.754 42.231C155.256 42.231 154.848 42.3387 154.53 42.554C154.213 42.758 153.975 43.0017 153.816 43.285C153.782 43.387 153.737 43.4607 153.68 43.506C153.635 43.5513 153.567 43.574 153.476 43.574H152.745C152.643 43.574 152.553 43.54 152.473 43.472C152.405 43.3927 152.371 43.302 152.371 43.2C152.383 42.928 152.507 42.622 152.745 42.282C152.995 41.9307 153.374 41.6303 153.884 41.381C154.394 41.1203 155.023 40.99 155.771 40.99C157.041 40.99 157.953 41.2903 158.508 41.891C159.064 42.4803 159.341 43.217 159.341 44.101V49.609C159.341 49.7223 159.302 49.8187 159.222 49.898C159.154 49.966 159.064 50 158.95 50H158.168C158.055 50 157.959 49.966 157.879 49.898C157.811 49.8187 157.777 49.7223 157.777 49.609V48.878C157.528 49.2407 157.165 49.5467 156.689 49.796C156.213 50.0453 155.607 50.17 154.87 50.17ZM155.227 48.895C155.964 48.895 156.565 48.657 157.029 48.181C157.505 47.6937 157.743 46.9967 157.743 46.09V45.614L155.771 45.903C154.967 46.0163 154.36 46.209 153.952 46.481C153.544 46.7417 153.34 47.076 153.34 47.484C153.34 47.9373 153.527 48.2887 153.901 48.538C154.275 48.776 154.717 48.895 155.227 48.895ZM163.15 53.23C163.059 53.23 162.98 53.196 162.912 53.128C162.844 53.06 162.81 52.9807 162.81 52.89C162.81 52.8107 162.838 52.7087 162.895 52.584L164.204 49.473L160.957 41.806C160.9 41.6587 160.872 41.5623 160.872 41.517C160.872 41.415 160.906 41.33 160.974 41.262C161.042 41.194 161.127 41.16 161.229 41.16H162.062C162.243 41.16 162.379 41.2563 162.47 41.449L165.054 47.637L167.706 41.449C167.796 41.2563 167.938 41.16 168.131 41.16H168.93C169.032 41.16 169.117 41.194 169.185 41.262C169.253 41.33 169.287 41.4093 169.287 41.5C169.287 41.534 169.258 41.636 169.202 41.806L164.374 52.941C164.283 53.1337 164.141 53.23 163.949 53.23H163.15ZM173.777 50.17C172.984 50.17 172.315 50.0453 171.771 49.796C171.238 49.5353 170.836 49.2407 170.564 48.912C170.303 48.5833 170.173 48.3113 170.173 48.096C170.173 47.9827 170.213 47.8977 170.292 47.841C170.383 47.773 170.473 47.739 170.564 47.739H171.329C171.442 47.739 171.544 47.7957 171.635 47.909C171.907 48.2263 172.202 48.4757 172.519 48.657C172.836 48.8383 173.261 48.929 173.794 48.929C174.383 48.929 174.859 48.8157 175.222 48.589C175.596 48.351 175.783 48.028 175.783 47.62C175.783 47.348 175.704 47.127 175.545 46.957C175.398 46.7757 175.137 46.6227 174.763 46.498C174.4 46.362 173.856 46.2147 173.131 46.056C172.145 45.8407 171.442 45.529 171.023 45.121C170.615 44.713 170.411 44.186 170.411 43.54C170.411 43.1093 170.536 42.7013 170.785 42.316C171.046 41.9193 171.42 41.602 171.907 41.364C172.406 41.1147 173.001 40.99 173.692 40.99C174.417 40.99 175.035 41.109 175.545 41.347C176.055 41.585 176.435 41.8683 176.684 42.197C176.945 42.5143 177.075 42.7807 177.075 42.996C177.075 43.098 177.035 43.183 176.956 43.251C176.888 43.319 176.803 43.353 176.701 43.353H175.987C175.851 43.353 175.738 43.2963 175.647 43.183C175.466 42.9677 175.307 42.8033 175.171 42.69C175.046 42.5653 174.859 42.4577 174.61 42.367C174.372 42.2763 174.066 42.231 173.692 42.231C173.148 42.231 172.729 42.35 172.434 42.588C172.139 42.8147 171.992 43.115 171.992 43.489C171.992 43.727 172.054 43.931 172.179 44.101C172.304 44.2597 172.542 44.407 172.893 44.543C173.256 44.679 173.777 44.8207 174.457 44.968C175.534 45.1947 176.293 45.5233 176.735 45.954C177.188 46.3733 177.415 46.9117 177.415 47.569C177.415 48.0563 177.273 48.4983 176.99 48.895C176.707 49.2917 176.287 49.6033 175.732 49.83C175.188 50.0567 174.536 50.17 173.777 50.17ZM186.636 50C184.845 50 183.95 49.0027 183.95 47.008V42.52H182.624C182.51 42.52 182.414 42.486 182.335 42.418C182.267 42.3387 182.233 42.2423 182.233 42.129V41.551C182.233 41.4377 182.267 41.347 182.335 41.279C182.414 41.1997 182.51 41.16 182.624 41.16H183.95V38.321C183.95 38.2077 183.984 38.117 184.052 38.049C184.131 37.9697 184.227 37.93 184.341 37.93H185.14C185.253 37.93 185.344 37.9697 185.412 38.049C185.491 38.117 185.531 38.2077 185.531 38.321V41.16H187.639C187.752 41.16 187.843 41.1997 187.911 41.279C187.99 41.347 188.03 41.4377 188.03 41.551V42.129C188.03 42.2423 187.99 42.3387 187.911 42.418C187.843 42.486 187.752 42.52 187.639 42.52H185.531V46.889C185.531 47.4557 185.627 47.8863 185.82 48.181C186.012 48.4643 186.33 48.606 186.772 48.606H187.809C187.922 48.606 188.013 48.6457 188.081 48.725C188.16 48.793 188.2 48.8837 188.2 48.997V49.609C188.2 49.7223 188.16 49.8187 188.081 49.898C188.013 49.966 187.922 50 187.809 50H186.636ZM193.446 50.17C192.2 50.17 191.231 49.8187 190.539 49.116C189.859 48.4133 189.497 47.4783 189.451 46.311L189.434 45.58L189.451 44.849C189.497 43.693 189.865 42.7637 190.556 42.061C191.248 41.347 192.211 40.99 193.446 40.99C194.682 40.99 195.645 41.347 196.336 42.061C197.028 42.7637 197.396 43.693 197.441 44.849C197.453 44.9737 197.458 45.2173 197.458 45.58C197.458 45.9427 197.453 46.1863 197.441 46.311C197.396 47.4783 197.028 48.4133 196.336 49.116C195.656 49.8187 194.693 50.17 193.446 50.17ZM193.446 48.861C194.16 48.861 194.721 48.6343 195.129 48.181C195.549 47.7277 195.775 47.076 195.809 46.226C195.821 46.1127 195.826 45.8973 195.826 45.58C195.826 45.2627 195.821 45.0473 195.809 44.934C195.775 44.084 195.549 43.4323 195.129 42.979C194.721 42.5257 194.16 42.299 193.446 42.299C192.732 42.299 192.166 42.5257 191.746 42.979C191.327 43.4323 191.106 44.084 191.083 44.934L191.066 45.58L191.083 46.226C191.106 47.076 191.327 47.7277 191.746 48.181C192.166 48.6343 192.732 48.861 193.446 48.861ZM204.145 50C204.032 50 203.935 49.966 203.856 49.898C203.788 49.8187 203.754 49.7223 203.754 49.609V41.568C203.754 41.4547 203.788 41.3583 203.856 41.279C203.935 41.1997 204.032 41.16 204.145 41.16H204.927C205.04 41.16 205.137 41.1997 205.216 41.279C205.295 41.3583 205.335 41.4547 205.335 41.568V42.316C205.8 41.5453 206.593 41.16 207.715 41.16H208.378C208.491 41.16 208.582 41.1997 208.65 41.279C208.729 41.347 208.769 41.4377 208.769 41.551V42.248C208.769 42.3613 208.729 42.452 208.65 42.52C208.582 42.588 208.491 42.622 208.378 42.622H207.358C206.746 42.622 206.264 42.8033 205.913 43.166C205.562 43.5173 205.386 43.999 205.386 44.611V49.609C205.386 49.7223 205.346 49.8187 205.267 49.898C205.188 49.966 205.091 50 204.978 50H204.145ZM213.582 50.17C212.415 50.17 211.48 49.813 210.777 49.099C210.086 48.3737 209.706 47.3877 209.638 46.141L209.621 45.563L209.638 45.002C209.717 43.778 210.103 42.8033 210.794 42.078C211.497 41.3527 212.42 40.99 213.565 40.99C214.823 40.99 215.798 41.3923 216.489 42.197C217.18 42.9903 217.526 44.067 217.526 45.427V45.716C217.526 45.8293 217.486 45.9257 217.407 46.005C217.339 46.073 217.248 46.107 217.135 46.107H211.253V46.26C211.287 46.9967 211.508 47.6257 211.916 48.147C212.335 48.657 212.885 48.912 213.565 48.912C214.086 48.912 214.511 48.81 214.84 48.606C215.18 48.3907 215.429 48.1697 215.588 47.943C215.69 47.807 215.764 47.7277 215.809 47.705C215.866 47.671 215.962 47.654 216.098 47.654H216.931C217.033 47.654 217.118 47.6823 217.186 47.739C217.254 47.7957 217.288 47.875 217.288 47.977C217.288 48.2263 217.129 48.5267 216.812 48.878C216.506 49.2293 216.07 49.5353 215.503 49.796C214.948 50.0453 214.307 50.17 213.582 50.17ZM215.911 44.934V44.883C215.911 44.101 215.696 43.4663 215.265 42.979C214.846 42.4803 214.279 42.231 213.565 42.231C212.851 42.231 212.284 42.4803 211.865 42.979C211.457 43.4663 211.253 44.101 211.253 44.883V44.934H215.911ZM223.129 50.17C221.916 50.17 220.964 49.83 220.273 49.15C219.593 48.4587 219.23 47.4953 219.185 46.26L219.168 45.58L219.185 44.9C219.23 43.6647 219.593 42.707 220.273 42.027C220.964 41.3357 221.916 40.99 223.129 40.99C223.945 40.99 224.636 41.1373 225.203 41.432C225.769 41.7267 226.189 42.0893 226.461 42.52C226.744 42.9507 226.897 43.3813 226.92 43.812C226.931 43.9253 226.897 44.016 226.818 44.084C226.738 44.152 226.642 44.186 226.529 44.186H225.713C225.599 44.186 225.514 44.1633 225.458 44.118C225.401 44.0727 225.344 43.982 225.288 43.846C225.095 43.302 224.823 42.9167 224.472 42.69C224.12 42.452 223.678 42.333 223.146 42.333C222.443 42.333 221.882 42.554 221.463 42.996C221.055 43.4267 220.834 44.0897 220.8 44.985L220.783 45.597L220.8 46.175C220.834 47.0817 221.055 47.7503 221.463 48.181C221.871 48.6117 222.432 48.827 223.146 48.827C223.678 48.827 224.12 48.7137 224.472 48.487C224.823 48.249 225.095 47.858 225.288 47.314C225.344 47.178 225.401 47.0873 225.458 47.042C225.514 46.9853 225.599 46.957 225.713 46.957H226.529C226.642 46.957 226.738 46.9967 226.818 47.076C226.897 47.144 226.931 47.2347 226.92 47.348C226.897 47.7673 226.744 48.198 226.461 48.64C226.189 49.0707 225.769 49.4333 225.203 49.728C224.647 50.0227 223.956 50.17 223.129 50.17ZM232.475 50.17C231.307 50.17 230.372 49.813 229.67 49.099C228.978 48.3737 228.599 47.3877 228.531 46.141L228.514 45.563L228.531 45.002C228.61 43.778 228.995 42.8033 229.687 42.078C230.389 41.3527 231.313 40.99 232.458 40.99C233.716 40.99 234.69 41.3923 235.382 42.197C236.073 42.9903 236.419 44.067 236.419 45.427V45.716C236.419 45.8293 236.379 45.9257 236.3 46.005C236.232 46.073 236.141 46.107 236.028 46.107H230.146V46.26C230.18 46.9967 230.401 47.6257 230.809 48.147C231.228 48.657 231.778 48.912 232.458 48.912C232.979 48.912 233.404 48.81 233.733 48.606C234.073 48.3907 234.322 48.1697 234.481 47.943C234.583 47.807 234.656 47.7277 234.702 47.705C234.758 47.671 234.855 47.654 234.991 47.654H235.824C235.926 47.654 236.011 47.6823 236.079 47.739C236.147 47.7957 236.181 47.875 236.181 47.977C236.181 48.2263 236.022 48.5267 235.705 48.878C235.399 49.2293 234.962 49.5353 234.396 49.796C233.84 50.0453 233.2 50.17 232.475 50.17ZM234.804 44.934V44.883C234.804 44.101 234.588 43.4663 234.158 42.979C233.738 42.4803 233.172 42.231 232.458 42.231C231.744 42.231 231.177 42.4803 230.758 42.979C230.35 43.4663 230.146 44.101 230.146 44.883V44.934H234.804ZM238.706 39.511C238.593 39.511 238.497 39.477 238.417 39.409C238.349 39.3297 238.315 39.2333 238.315 39.12V38.202C238.315 38.0887 238.349 37.9923 238.417 37.913C238.497 37.8337 238.593 37.794 238.706 37.794H239.777C239.891 37.794 239.987 37.8337 240.066 37.913C240.146 37.9923 240.185 38.0887 240.185 38.202V39.12C240.185 39.2333 240.146 39.3297 240.066 39.409C239.987 39.477 239.891 39.511 239.777 39.511H238.706ZM238.842 50C238.729 50 238.633 49.966 238.553 49.898C238.485 49.8187 238.451 49.7223 238.451 49.609V41.551C238.451 41.4377 238.485 41.347 238.553 41.279C238.633 41.1997 238.729 41.16 238.842 41.16H239.658C239.772 41.16 239.862 41.1997 239.93 41.279C240.01 41.347 240.049 41.4377 240.049 41.551V49.609C240.049 49.7223 240.01 49.8187 239.93 49.898C239.862 49.966 239.772 50 239.658 50H238.842ZM245.646 50C245.351 50 245.141 49.8583 245.017 49.575L241.872 41.687L241.838 41.517C241.838 41.415 241.872 41.33 241.94 41.262C242.008 41.194 242.093 41.16 242.195 41.16H243.011C243.203 41.16 243.345 41.2563 243.436 41.449L246.02 48.147L248.604 41.449C248.706 41.2563 248.842 41.16 249.012 41.16H249.845C249.935 41.16 250.015 41.194 250.083 41.262C250.162 41.33 250.202 41.415 250.202 41.517L250.168 41.687L247.006 49.575C246.881 49.8583 246.671 50 246.377 50H245.646ZM255.202 50.17C254.035 50.17 253.1 49.813 252.397 49.099C251.706 48.3737 251.326 47.3877 251.258 46.141L251.241 45.563L251.258 45.002C251.338 43.778 251.723 42.8033 252.414 42.078C253.117 41.3527 254.041 40.99 255.185 40.99C256.443 40.99 257.418 41.3923 258.109 42.197C258.801 42.9903 259.146 44.067 259.146 45.427V45.716C259.146 45.8293 259.107 45.9257 259.027 46.005C258.959 46.073 258.869 46.107 258.755 46.107H252.873V46.26C252.907 46.9967 253.128 47.6257 253.536 48.147C253.956 48.657 254.505 48.912 255.185 48.912C255.707 48.912 256.132 48.81 256.46 48.606C256.8 48.3907 257.05 48.1697 257.208 47.943C257.31 47.807 257.384 47.7277 257.429 47.705C257.486 47.671 257.582 47.654 257.718 47.654H258.551C258.653 47.654 258.738 47.6823 258.806 47.739C258.874 47.7957 258.908 47.875 258.908 47.977C258.908 48.2263 258.75 48.5267 258.432 48.878C258.126 49.2293 257.69 49.5353 257.123 49.796C256.568 50.0453 255.928 50.17 255.202 50.17ZM257.531 44.934V44.883C257.531 44.101 257.316 43.4663 256.885 42.979C256.466 42.4803 255.899 42.231 255.185 42.231C254.471 42.231 253.905 42.4803 253.485 42.979C253.077 43.4663 252.873 44.101 252.873 44.883V44.934H257.531ZM265.737 50C265.624 50 265.527 49.966 265.448 49.898C265.38 49.8187 265.346 49.7223 265.346 49.609V41.551C265.346 41.4377 265.38 41.347 265.448 41.279C265.527 41.1997 265.624 41.16 265.737 41.16H266.502C266.615 41.16 266.706 41.1997 266.774 41.279C266.853 41.347 266.893 41.4377 266.893 41.551V42.146C267.482 41.3753 268.304 40.99 269.358 40.99C270.616 40.99 271.506 41.5113 272.027 42.554C272.299 42.078 272.684 41.6983 273.183 41.415C273.682 41.1317 274.243 40.99 274.866 40.99C275.795 40.99 276.555 41.3073 277.144 41.942C277.733 42.5767 278.028 43.4947 278.028 44.696V49.609C278.028 49.7223 277.988 49.8187 277.909 49.898C277.841 49.966 277.75 50 277.637 50H276.838C276.725 50 276.628 49.966 276.549 49.898C276.481 49.8187 276.447 49.7223 276.447 49.609V44.849C276.447 43.965 276.26 43.3303 275.886 42.945C275.523 42.5597 275.042 42.367 274.441 42.367C273.908 42.367 273.449 42.5653 273.064 42.962C272.679 43.3473 272.486 43.9763 272.486 44.849V49.609C272.486 49.7223 272.446 49.8187 272.367 49.898C272.299 49.966 272.208 50 272.095 50H271.296C271.183 50 271.086 49.966 271.007 49.898C270.939 49.8187 270.905 49.7223 270.905 49.609V44.849C270.905 43.965 270.712 43.3303 270.327 42.945C269.953 42.5597 269.477 42.367 268.899 42.367C268.366 42.367 267.907 42.5653 267.522 42.962C267.137 43.3473 266.944 43.9707 266.944 44.832V49.609C266.944 49.7223 266.904 49.8187 266.825 49.898C266.757 49.966 266.666 50 266.553 50H265.737ZM284.074 50.17C282.828 50.17 281.859 49.8187 281.167 49.116C280.487 48.4133 280.125 47.4783 280.079 46.311L280.062 45.58L280.079 44.849C280.125 43.693 280.493 42.7637 281.184 42.061C281.876 41.347 282.839 40.99 284.074 40.99C285.31 40.99 286.273 41.347 286.964 42.061C287.656 42.7637 288.024 43.693 288.069 44.849C288.081 44.9737 288.086 45.2173 288.086 45.58C288.086 45.9427 288.081 46.1863 288.069 46.311C288.024 47.4783 287.656 48.4133 286.964 49.116C286.284 49.8187 285.321 50.17 284.074 50.17ZM284.074 48.861C284.788 48.861 285.349 48.6343 285.757 48.181C286.177 47.7277 286.403 47.076 286.437 46.226C286.449 46.1127 286.454 45.8973 286.454 45.58C286.454 45.2627 286.449 45.0473 286.437 44.934C286.403 44.084 286.177 43.4323 285.757 42.979C285.349 42.5257 284.788 42.299 284.074 42.299C283.36 42.299 282.794 42.5257 282.374 42.979C281.955 43.4323 281.734 44.084 281.711 44.934L281.694 45.58L281.711 46.226C281.734 47.076 281.955 47.7277 282.374 48.181C282.794 48.6343 283.36 48.861 284.074 48.861ZM290.606 50C290.493 50 290.396 49.966 290.317 49.898C290.249 49.8187 290.215 49.7223 290.215 49.609V41.551C290.215 41.4377 290.249 41.347 290.317 41.279C290.396 41.1997 290.493 41.16 290.606 41.16H291.405C291.518 41.16 291.609 41.1997 291.677 41.279C291.756 41.347 291.796 41.4377 291.796 41.551V42.299C292.125 41.8797 292.51 41.5567 292.952 41.33C293.405 41.1033 293.966 40.99 294.635 40.99C295.723 40.99 296.567 41.3413 297.168 42.044C297.78 42.7353 298.086 43.659 298.086 44.815V49.609C298.086 49.7223 298.046 49.8187 297.967 49.898C297.899 49.966 297.808 50 297.695 50H296.845C296.732 50 296.635 49.966 296.556 49.898C296.488 49.8187 296.454 49.7223 296.454 49.609V44.9C296.454 44.0953 296.256 43.472 295.859 43.03C295.474 42.588 294.913 42.367 294.176 42.367C293.462 42.367 292.895 42.5937 292.476 43.047C292.057 43.489 291.847 44.1067 291.847 44.9V49.609C291.847 49.7223 291.807 49.8187 291.728 49.898C291.66 49.966 291.569 50 291.456 50H290.606ZM304.061 50.17C302.893 50.17 301.958 49.813 301.256 49.099C300.564 48.3737 300.185 47.3877 300.117 46.141L300.1 45.563L300.117 45.002C300.196 43.778 300.581 42.8033 301.273 42.078C301.975 41.3527 302.899 40.99 304.044 40.99C305.302 40.99 306.276 41.3923 306.968 42.197C307.659 42.9903 308.005 44.067 308.005 45.427V45.716C308.005 45.8293 307.965 45.9257 307.886 46.005C307.818 46.073 307.727 46.107 307.614 46.107H301.732V46.26C301.766 46.9967 301.987 47.6257 302.395 48.147C302.814 48.657 303.364 48.912 304.044 48.912C304.565 48.912 304.99 48.81 305.319 48.606C305.659 48.3907 305.908 48.1697 306.067 47.943C306.169 47.807 306.242 47.7277 306.288 47.705C306.344 47.671 306.441 47.654 306.577 47.654H307.41C307.512 47.654 307.597 47.6823 307.665 47.739C307.733 47.7957 307.767 47.875 307.767 47.977C307.767 48.2263 307.608 48.5267 307.291 48.878C306.985 49.2293 306.548 49.5353 305.982 49.796C305.426 50.0453 304.786 50.17 304.061 50.17ZM306.39 44.934V44.883C306.39 44.101 306.174 43.4663 305.744 42.979C305.324 42.4803 304.758 42.231 304.044 42.231C303.33 42.231 302.763 42.4803 302.344 42.979C301.936 43.4663 301.732 44.101 301.732 44.883V44.934H306.39ZM311.252 53.23C311.162 53.23 311.082 53.196 311.014 53.128C310.946 53.06 310.912 52.9807 310.912 52.89C310.912 52.8107 310.941 52.7087 310.997 52.584L312.306 49.473L309.059 41.806C309.003 41.6587 308.974 41.5623 308.974 41.517C308.974 41.415 309.008 41.33 309.076 41.262C309.144 41.194 309.229 41.16 309.331 41.16H310.164C310.346 41.16 310.482 41.2563 310.572 41.449L313.156 47.637L315.808 41.449C315.899 41.2563 316.041 41.16 316.233 41.16H317.032C317.134 41.16 317.219 41.194 317.287 41.262C317.355 41.33 317.389 41.4093 317.389 41.5C317.389 41.534 317.361 41.636 317.304 41.806L312.476 52.941C312.386 53.1337 312.244 53.23 312.051 53.23H311.252ZM325.89 50C324.099 50 323.204 49.0027 323.204 47.008V42.52H321.878C321.764 42.52 321.668 42.486 321.589 42.418C321.521 42.3387 321.487 42.2423 321.487 42.129V41.551C321.487 41.4377 321.521 41.347 321.589 41.279C321.668 41.1997 321.764 41.16 321.878 41.16H323.204V38.321C323.204 38.2077 323.238 38.117 323.306 38.049C323.385 37.9697 323.481 37.93 323.595 37.93H324.394C324.507 37.93 324.598 37.9697 324.666 38.049C324.745 38.117 324.785 38.2077 324.785 38.321V41.16H326.893C327.006 41.16 327.097 41.1997 327.165 41.279C327.244 41.347 327.284 41.4377 327.284 41.551V42.129C327.284 42.2423 327.244 42.3387 327.165 42.418C327.097 42.486 327.006 42.52 326.893 42.52H324.785V46.889C324.785 47.4557 324.881 47.8863 325.074 48.181C325.266 48.4643 325.584 48.606 326.026 48.606H327.063C327.176 48.606 327.267 48.6457 327.335 48.725C327.414 48.793 327.454 48.8837 327.454 48.997V49.609C327.454 49.7223 327.414 49.8187 327.335 49.898C327.267 49.966 327.176 50 327.063 50H325.89ZM332.7 50.17C331.454 50.17 330.485 49.8187 329.793 49.116C329.113 48.4133 328.751 47.4783 328.705 46.311L328.688 45.58L328.705 44.849C328.751 43.693 329.119 42.7637 329.81 42.061C330.502 41.347 331.465 40.99 332.7 40.99C333.936 40.99 334.899 41.347 335.59 42.061C336.282 42.7637 336.65 43.693 336.695 44.849C336.707 44.9737 336.712 45.2173 336.712 45.58C336.712 45.9427 336.707 46.1863 336.695 46.311C336.65 47.4783 336.282 48.4133 335.59 49.116C334.91 49.8187 333.947 50.17 332.7 50.17ZM332.7 48.861C333.414 48.861 333.975 48.6343 334.383 48.181C334.803 47.7277 335.029 47.076 335.063 46.226C335.075 46.1127 335.08 45.8973 335.08 45.58C335.08 45.2627 335.075 45.0473 335.063 44.934C335.029 44.084 334.803 43.4323 334.383 42.979C333.975 42.5257 333.414 42.299 332.7 42.299C331.986 42.299 331.42 42.5257 331 42.979C330.581 43.4323 330.36 44.084 330.337 44.934L330.32 45.58L330.337 46.226C330.36 47.076 330.581 47.7277 331 48.181C331.42 48.6343 331.986 48.861 332.7 48.861ZM110.805 77.23C110.714 77.23 110.635 77.196 110.567 77.128C110.499 77.06 110.465 76.9807 110.465 76.89C110.465 76.8107 110.493 76.7087 110.55 76.584L111.859 73.473L108.612 65.806C108.555 65.6587 108.527 65.5623 108.527 65.517C108.527 65.415 108.561 65.33 108.629 65.262C108.697 65.194 108.782 65.16 108.884 65.16H109.717C109.898 65.16 110.034 65.2563 110.125 65.449L112.709 71.637L115.361 65.449C115.452 65.2563 115.593 65.16 115.786 65.16H116.585C116.687 65.16 116.772 65.194 116.84 65.262C116.908 65.33 116.942 65.4093 116.942 65.5C116.942 65.534 116.914 65.636 116.857 65.806L112.029 76.941C111.938 77.1337 111.797 77.23 111.604 77.23H110.805ZM121.96 74.17C120.713 74.17 119.744 73.8187 119.053 73.116C118.373 72.4133 118.01 71.4783 117.965 70.311L117.948 69.58L117.965 68.849C118.01 67.693 118.379 66.7637 119.07 66.061C119.761 65.347 120.725 64.99 121.96 64.99C123.195 64.99 124.159 65.347 124.85 66.061C125.541 66.7637 125.91 67.693 125.955 68.849C125.966 68.9737 125.972 69.2173 125.972 69.58C125.972 69.9427 125.966 70.1863 125.955 70.311C125.91 71.4783 125.541 72.4133 124.85 73.116C124.17 73.8187 123.207 74.17 121.96 74.17ZM121.96 72.861C122.674 72.861 123.235 72.6343 123.643 72.181C124.062 71.7277 124.289 71.076 124.323 70.226C124.334 70.1127 124.34 69.8973 124.34 69.58C124.34 69.2627 124.334 69.0473 124.323 68.934C124.289 68.084 124.062 67.4323 123.643 66.979C123.235 66.5257 122.674 66.299 121.96 66.299C121.246 66.299 120.679 66.5257 120.26 66.979C119.841 67.4323 119.62 68.084 119.597 68.934L119.58 69.58L119.597 70.226C119.62 71.076 119.841 71.7277 120.26 72.181C120.679 72.6343 121.246 72.861 121.96 72.861ZM131.399 74.17C130.322 74.17 129.489 73.8243 128.9 73.133C128.31 72.4303 128.016 71.501 128.016 70.345V65.551C128.016 65.4377 128.05 65.347 128.118 65.279C128.197 65.1997 128.293 65.16 128.407 65.16H129.257C129.37 65.16 129.461 65.1997 129.529 65.279C129.608 65.347 129.648 65.4377 129.648 65.551V70.26C129.648 71.9487 130.384 72.793 131.858 72.793C132.572 72.793 133.138 72.572 133.558 72.13C133.977 71.6767 134.187 71.0533 134.187 70.26V65.551C134.187 65.4377 134.221 65.347 134.289 65.279C134.368 65.1997 134.464 65.16 134.578 65.16H135.428C135.541 65.16 135.632 65.1997 135.7 65.279C135.768 65.347 135.802 65.4377 135.802 65.551V73.609C135.802 73.7223 135.768 73.8187 135.7 73.898C135.632 73.966 135.541 74 135.428 74H134.629C134.515 74 134.419 73.966 134.34 73.898C134.272 73.8187 134.238 73.7223 134.238 73.609V72.861C133.92 73.2917 133.535 73.6203 133.082 73.847C132.628 74.0623 132.067 74.17 131.399 74.17ZM138.718 74C138.605 74 138.509 73.966 138.429 73.898C138.361 73.8187 138.327 73.7223 138.327 73.609V65.568C138.327 65.4547 138.361 65.3583 138.429 65.279C138.509 65.1997 138.605 65.16 138.718 65.16H139.5C139.614 65.16 139.71 65.1997 139.789 65.279C139.869 65.3583 139.908 65.4547 139.908 65.568V66.316C140.373 65.5453 141.166 65.16 142.288 65.16H142.951C143.065 65.16 143.155 65.1997 143.223 65.279C143.303 65.347 143.342 65.4377 143.342 65.551V66.248C143.342 66.3613 143.303 66.452 143.223 66.52C143.155 66.588 143.065 66.622 142.951 66.622H141.931C141.319 66.622 140.838 66.8033 140.486 67.166C140.135 67.5173 139.959 67.999 139.959 68.611V73.609C139.959 73.7223 139.92 73.8187 139.84 73.898C139.761 73.966 139.665 74 139.551 74H138.718ZM151.019 74.17C150.464 74.17 149.948 74.0567 149.472 73.83C148.996 73.6033 148.616 73.2973 148.333 72.912C148.061 72.5153 147.925 72.079 147.925 71.603C147.925 70.855 148.231 70.243 148.843 69.767C149.466 69.2797 150.305 68.9623 151.359 68.815L153.892 68.458V67.965C153.892 66.809 153.229 66.231 151.903 66.231C151.404 66.231 150.996 66.3387 150.679 66.554C150.362 66.758 150.124 67.0017 149.965 67.285C149.931 67.387 149.886 67.4607 149.829 67.506C149.784 67.5513 149.716 67.574 149.625 67.574H148.894C148.792 67.574 148.701 67.54 148.622 67.472C148.554 67.3927 148.52 67.302 148.52 67.2C148.531 66.928 148.656 66.622 148.894 66.282C149.143 65.9307 149.523 65.6303 150.033 65.381C150.543 65.1203 151.172 64.99 151.92 64.99C153.189 64.99 154.102 65.2903 154.657 65.891C155.212 66.4803 155.49 67.217 155.49 68.101V73.609C155.49 73.7223 155.45 73.8187 155.371 73.898C155.303 73.966 155.212 74 155.099 74H154.317C154.204 74 154.107 73.966 154.028 73.898C153.96 73.8187 153.926 73.7223 153.926 73.609V72.878C153.677 73.2407 153.314 73.5467 152.838 73.796C152.362 74.0453 151.756 74.17 151.019 74.17ZM151.376 72.895C152.113 72.895 152.713 72.657 153.178 72.181C153.654 71.6937 153.892 70.9967 153.892 70.09V69.614L151.92 69.903C151.115 70.0163 150.509 70.209 150.101 70.481C149.693 70.7417 149.489 71.076 149.489 71.484C149.489 71.9373 149.676 72.2887 150.05 72.538C150.424 72.776 150.866 72.895 151.376 72.895ZM161.504 74.17C160.291 74.17 159.339 73.83 158.648 73.15C157.968 72.4587 157.605 71.4953 157.56 70.26L157.543 69.58L157.56 68.9C157.605 67.6647 157.968 66.707 158.648 66.027C159.339 65.3357 160.291 64.99 161.504 64.99C162.32 64.99 163.011 65.1373 163.578 65.432C164.144 65.7267 164.564 66.0893 164.836 66.52C165.119 66.9507 165.272 67.3813 165.295 67.812C165.306 67.9253 165.272 68.016 165.193 68.084C165.113 68.152 165.017 68.186 164.904 68.186H164.088C163.974 68.186 163.889 68.1633 163.833 68.118C163.776 68.0727 163.719 67.982 163.663 67.846C163.47 67.302 163.198 66.9167 162.847 66.69C162.495 66.452 162.053 66.333 161.521 66.333C160.818 66.333 160.257 66.554 159.838 66.996C159.43 67.4267 159.209 68.0897 159.175 68.985L159.158 69.597L159.175 70.175C159.209 71.0817 159.43 71.7503 159.838 72.181C160.246 72.6117 160.807 72.827 161.521 72.827C162.053 72.827 162.495 72.7137 162.847 72.487C163.198 72.249 163.47 71.858 163.663 71.314C163.719 71.178 163.776 71.0873 163.833 71.042C163.889 70.9853 163.974 70.957 164.088 70.957H164.904C165.017 70.957 165.113 70.9967 165.193 71.076C165.272 71.144 165.306 71.2347 165.295 71.348C165.272 71.7673 165.119 72.198 164.836 72.64C164.564 73.0707 164.144 73.4333 163.578 73.728C163.022 74.0227 162.331 74.17 161.504 74.17ZM170.884 74.17C169.671 74.17 168.719 73.83 168.028 73.15C167.348 72.4587 166.985 71.4953 166.94 70.26L166.923 69.58L166.94 68.9C166.985 67.6647 167.348 66.707 168.028 66.027C168.719 65.3357 169.671 64.99 170.884 64.99C171.7 64.99 172.391 65.1373 172.958 65.432C173.524 65.7267 173.944 66.0893 174.216 66.52C174.499 66.9507 174.652 67.3813 174.675 67.812C174.686 67.9253 174.652 68.016 174.573 68.084C174.493 68.152 174.397 68.186 174.284 68.186H173.468C173.354 68.186 173.269 68.1633 173.213 68.118C173.156 68.0727 173.099 67.982 173.043 67.846C172.85 67.302 172.578 66.9167 172.227 66.69C171.875 66.452 171.433 66.333 170.901 66.333C170.198 66.333 169.637 66.554 169.218 66.996C168.81 67.4267 168.589 68.0897 168.555 68.985L168.538 69.597L168.555 70.175C168.589 71.0817 168.81 71.7503 169.218 72.181C169.626 72.6117 170.187 72.827 170.901 72.827C171.433 72.827 171.875 72.7137 172.227 72.487C172.578 72.249 172.85 71.858 173.043 71.314C173.099 71.178 173.156 71.0873 173.213 71.042C173.269 70.9853 173.354 70.957 173.468 70.957H174.284C174.397 70.957 174.493 70.9967 174.573 71.076C174.652 71.144 174.686 71.2347 174.675 71.348C174.652 71.7673 174.499 72.198 174.216 72.64C173.944 73.0707 173.524 73.4333 172.958 73.728C172.402 74.0227 171.711 74.17 170.884 74.17ZM180.315 74.17C179.068 74.17 178.099 73.8187 177.408 73.116C176.728 72.4133 176.365 71.4783 176.32 70.311L176.303 69.58L176.32 68.849C176.365 67.693 176.733 66.7637 177.425 66.061C178.116 65.347 179.079 64.99 180.315 64.99C181.55 64.99 182.513 65.347 183.205 66.061C183.896 66.7637 184.264 67.693 184.31 68.849C184.321 68.9737 184.327 69.2173 184.327 69.58C184.327 69.9427 184.321 70.1863 184.31 70.311C184.264 71.4783 183.896 72.4133 183.205 73.116C182.525 73.8187 181.561 74.17 180.315 74.17ZM180.315 72.861C181.029 72.861 181.59 72.6343 181.998 72.181C182.417 71.7277 182.644 71.076 182.678 70.226C182.689 70.1127 182.695 69.8973 182.695 69.58C182.695 69.2627 182.689 69.0473 182.678 68.934C182.644 68.084 182.417 67.4323 181.998 66.979C181.59 66.5257 181.029 66.299 180.315 66.299C179.601 66.299 179.034 66.5257 178.615 66.979C178.195 67.4323 177.974 68.084 177.952 68.934L177.935 69.58L177.952 70.226C177.974 71.076 178.195 71.7277 178.615 72.181C179.034 72.6343 179.601 72.861 180.315 72.861ZM189.753 74.17C188.677 74.17 187.844 73.8243 187.254 73.133C186.665 72.4303 186.37 71.501 186.37 70.345V65.551C186.37 65.4377 186.404 65.347 186.472 65.279C186.552 65.1997 186.648 65.16 186.761 65.16H187.611C187.725 65.16 187.815 65.1997 187.883 65.279C187.963 65.347 188.002 65.4377 188.002 65.551V70.26C188.002 71.9487 188.739 72.793 190.212 72.793C190.926 72.793 191.493 72.572 191.912 72.13C192.332 71.6767 192.541 71.0533 192.541 70.26V65.551C192.541 65.4377 192.575 65.347 192.643 65.279C192.723 65.1997 192.819 65.16 192.932 65.16H193.782C193.896 65.16 193.986 65.1997 194.054 65.279C194.122 65.347 194.156 65.4377 194.156 65.551V73.609C194.156 73.7223 194.122 73.8187 194.054 73.898C193.986 73.966 193.896 74 193.782 74H192.983C192.87 74 192.774 73.966 192.694 73.898C192.626 73.8187 192.592 73.7223 192.592 73.609V72.861C192.275 73.2917 191.89 73.6203 191.436 73.847C190.983 74.0623 190.422 74.17 189.753 74.17ZM197.073 74C196.959 74 196.863 73.966 196.784 73.898C196.716 73.8187 196.682 73.7223 196.682 73.609V65.551C196.682 65.4377 196.716 65.347 196.784 65.279C196.863 65.1997 196.959 65.16 197.073 65.16H197.872C197.985 65.16 198.076 65.1997 198.144 65.279C198.223 65.347 198.263 65.4377 198.263 65.551V66.299C198.591 65.8797 198.977 65.5567 199.419 65.33C199.872 65.1033 200.433 64.99 201.102 64.99C202.19 64.99 203.034 65.3413 203.635 66.044C204.247 66.7353 204.553 67.659 204.553 68.815V73.609C204.553 73.7223 204.513 73.8187 204.434 73.898C204.366 73.966 204.275 74 204.162 74H203.312C203.198 74 203.102 73.966 203.023 73.898C202.955 73.8187 202.921 73.7223 202.921 73.609V68.9C202.921 68.0953 202.722 67.472 202.326 67.03C201.94 66.588 201.379 66.367 200.643 66.367C199.929 66.367 199.362 66.5937 198.943 67.047C198.523 67.489 198.314 68.1067 198.314 68.9V73.609C198.314 73.7223 198.274 73.8187 198.195 73.898C198.127 73.966 198.036 74 197.923 74H197.073ZM210.326 74C208.536 74 207.64 73.0027 207.64 71.008V66.52H206.314C206.201 66.52 206.105 66.486 206.025 66.418C205.957 66.3387 205.923 66.2423 205.923 66.129V65.551C205.923 65.4377 205.957 65.347 206.025 65.279C206.105 65.1997 206.201 65.16 206.314 65.16H207.64V62.321C207.64 62.2077 207.674 62.117 207.742 62.049C207.822 61.9697 207.918 61.93 208.031 61.93H208.83C208.944 61.93 209.034 61.9697 209.102 62.049C209.182 62.117 209.221 62.2077 209.221 62.321V65.16H211.329C211.443 65.16 211.533 65.1997 211.601 65.279C211.681 65.347 211.72 65.4377 211.72 65.551V66.129C211.72 66.2423 211.681 66.3387 211.601 66.418C211.533 66.486 211.443 66.52 211.329 66.52H209.221V70.889C209.221 71.4557 209.318 71.8863 209.51 72.181C209.703 72.4643 210.02 72.606 210.462 72.606H211.499C211.613 72.606 211.703 72.6457 211.771 72.725C211.851 72.793 211.89 72.8837 211.89 72.997V73.609C211.89 73.7223 211.851 73.8187 211.771 73.898C211.703 73.966 211.613 74 211.499 74H210.326Z" fill="#A19FB0"/>
<rect width="84" height="84" rx="16" fill="white"/>
<g clip-path="url(#clip0_3218_27856)">
<path fill-rule="evenodd" clip-rule="evenodd" d="M31 31C28.7909 31 27 32.7909 27 35V49C27 51.2091 28.7909 53 31 53L53.7101 53.0024L51.8388 54.7027C51.3871 55.1132 51.3871 55.8004 51.8388 56.211C52.263 56.5963 52.9326 56.5963 53.3568 56.211L57.1612 52.7541C57.6129 52.3436 57.6129 51.6564 57.1612 51.2459L53.3568 47.789C52.9326 47.4037 52.263 47.4037 51.8388 47.789C51.3871 48.1996 51.3871 48.8868 51.8388 49.2973L53.7101 50.9976L31 51C29.8954 51 29 50.1046 29 49V40.2647H54V44.2941C54 44.8464 54.4477 45.2941 55 45.2941C55.5523 45.2941 56 44.8464 56 44.2941V35C56 32.7909 54.2091 31 52 31H31ZM29 38.2647H54V35C54 33.8954 53.1046 33 52 33H31C29.8954 33 29 33.8954 29 35V38.2647Z" fill="#2F2B5B"/>
</g>
<defs>
<clipPath id="clip0_3218_27856">
<rect width="51" height="51" fill="white" transform="translate(16 67) rotate(-90)"/>
</clipPath>
</defs>
</svg>
