<svg width="123" height="35" viewBox="0 0 123 35" fill="none" xmlns="http://www.w3.org/2000/svg">
<path fill-rule="evenodd" clip-rule="evenodd" d="M52.5157 11.2119C51.943 10.8884 51.2056 11.0841 50.8713 11.6506C50.5371 12.2171 50.7326 12.9399 51.3053 13.2634C51.878 13.587 52.6154 13.3913 52.9497 12.8248C53.284 12.2582 53.0885 11.5354 52.5157 11.2119ZM79.2769 26.2977C78.6651 26.2977 78.0905 26.0034 77.733 25.5067L74.892 21.5598H73.4816V25.1293C73.4816 25.7746 72.9585 26.2977 72.3132 26.2977C71.6679 26.2977 71.1448 25.7746 71.1448 25.1293V12.3667C71.1448 11.7215 71.6679 11.1984 72.3132 11.1984C72.9585 11.1984 73.4816 11.7215 73.4816 12.3667V19.4793H74.9131L77.4331 15.9493C77.7805 15.4628 78.3414 15.174 78.9392 15.174C79.6931 15.174 80.1305 16.0275 79.6903 16.6395L76.8919 20.5299L80.0412 24.7803C80.5062 25.408 80.0582 26.2977 79.2769 26.2977ZM40.0807 11.8781H42.9596C45.8227 11.8781 47.991 13.9175 47.991 16.9473C47.991 19.9566 45.8437 21.9959 42.9596 21.9959H39.9282V25.0978C39.9282 25.7605 39.391 26.2977 38.7283 26.2977C38.0656 26.2977 37.5283 25.7605 37.5283 25.0977V14.4305C37.5283 13.0209 38.671 11.8781 40.0807 11.8781ZM39.9282 19.7506H42.8544C44.4333 19.7506 45.5279 18.5343 45.5279 16.9473C45.5279 15.3397 44.4333 14.1235 42.8544 14.1235H39.9282V19.7506ZM51.9212 26.2977C51.2759 26.2977 50.7528 25.7746 50.7528 25.1293V16.3424C50.7528 15.6971 51.2759 15.174 51.9212 15.174C52.5664 15.174 53.0895 15.6971 53.0895 16.3424V25.1293C53.0895 25.7746 52.5664 26.2977 51.9212 26.2977ZM62.3017 26.5861C65.1015 26.5861 67.3541 24.8557 67.9646 22.2602C68.018 22.0008 67.8198 21.7577 67.555 21.7577H66.4001C66.0607 21.7577 65.7518 21.9534 65.6068 22.2602C64.9963 23.6198 63.7963 24.4026 62.3017 24.4026C60.2807 24.4026 58.7229 22.7958 58.7229 20.7359C58.7229 18.6759 60.2597 17.0898 62.3017 17.0898C63.7753 17.0898 65.0384 17.8726 65.6278 19.1497C65.8084 19.5454 66.2034 19.7993 66.6384 19.7993H67.4066C67.7498 19.7993 68.0081 19.4868 67.9435 19.1497C67.312 16.5954 65.1226 14.9062 62.3017 14.9062C58.9123 14.9062 56.344 17.4194 56.344 20.7359C56.344 24.0524 58.9123 26.5861 62.3017 26.5861ZM87.5582 26.5861C90.3371 26.5861 92.1686 25.1853 92.1686 23.0224C92.1686 20.2888 89.8422 19.9135 87.9289 19.605L87.9161 19.6029L87.8901 19.5986C86.5331 19.3739 85.3899 19.1846 85.3899 18.2021C85.3899 17.3988 86.1899 16.8426 87.474 16.8426C88.8424 16.8426 89.6845 17.4194 89.7266 18.4699C89.7266 18.6465 89.8636 18.7928 90.0398 18.8044L91.479 18.8989C91.7269 18.9151 91.937 18.7184 91.937 18.4699C91.8949 16.3276 90.1686 14.9062 87.5372 14.9062C84.8847 14.9062 83.1374 16.2864 83.1374 18.2845C83.1374 20.8595 85.3689 21.2714 87.2635 21.601C88.6529 21.8276 89.8739 22.0542 89.8739 23.1254C89.8739 24.0524 88.9056 24.5673 87.6425 24.5673C86.2741 24.5673 85.2636 23.9494 85.2005 22.7752C85.2005 22.5701 85.0412 22.4003 84.8365 22.3873L83.4356 22.2979C83.16 22.2803 82.9269 22.4991 82.9269 22.7752C82.99 25.0823 84.8005 26.5861 87.5582 26.5861ZM100.603 14.9062C104.098 14.9062 106.413 17.543 106.413 20.7771C106.413 21.0243 106.392 21.2714 106.35 21.5186H97.1296C97.4244 23.3314 98.7506 24.4438 100.603 24.4438C101.755 24.4438 102.713 24.0057 103.352 23.2525C103.578 22.9857 103.888 22.7958 104.237 22.7958H105.367C105.734 22.7958 105.992 23.1744 105.82 23.4985C104.796 25.4285 102.885 26.5861 100.603 26.5861C97.277 26.5861 94.7719 24.073 94.7719 20.7359C94.7719 17.4194 97.277 14.9062 100.603 14.9062ZM104.056 19.6647C103.635 17.9755 102.35 16.9868 100.603 16.9868C98.8559 16.9868 97.5717 18.0167 97.1928 19.6647H104.056ZM109.378 25.1293C109.378 25.7746 109.901 26.2977 110.546 26.2977C111.191 26.2977 111.715 25.7746 111.715 25.1293V12.3667C111.715 11.7215 111.191 11.1984 110.546 11.1984C109.901 11.1984 109.378 11.7215 109.378 12.3667V25.1293ZM116.831 26.2977C116.186 26.2977 115.663 25.7746 115.663 25.1293V12.3667C115.663 11.7215 116.186 11.1984 116.831 11.1984C117.477 11.1984 118 11.7215 118 12.3667V25.1293C118 25.7746 117.477 26.2977 116.831 26.2977Z" fill="white"/>
<path d="M12.5332 8.08182C13.5375 6.37978 15.7616 5.79662 17.501 6.77929L27.3994 12.3713C29.1388 13.354 29.7348 15.5304 28.7306 17.2325L23.0157 26.9182C22.0115 28.6202 19.7873 29.2034 18.0479 28.2207L8.1495 22.6287C6.41009 21.646 5.81412 19.4696 6.81837 17.7675L12.5332 8.08182Z" fill="white"/>
</svg>
